<svg width="182" height="67" viewBox="0 0 182 67" fill="none" xmlns="http://www.w3.org/2000/svg">
<path d="M156.745 64.9756C157.215 65.0633 157.406 64.4789 156.98 64.2452C147.063 58.6504 118.968 53.2601 79.5767 57.8324C33.4074 63.1935 8.40824 57.7301 0.647352 50.5431C0.324592 50.2363 -0.174217 50.6453 0.0605165 51.0251C4.41777 58.519 13.1616 65.1655 42.386 66.6555C80.589 68.5984 110.62 56.0356 156.745 64.9756Z" fill="#E6B12B"/>
<path d="M0.00183105 29.537C0.00183105 23.7377 0.00183105 17.953 0.00183105 12.1537C0.00183105 10.7514 0.221894 10.5323 1.61563 10.5323C6.70642 10.5323 11.7972 10.4738 16.8733 10.5615C20.3357 10.6199 23.5046 11.6717 26.0866 14.082C28.2726 16.1271 29.3289 18.6834 29.4756 21.6196C29.6663 25.3592 28.566 28.6168 25.7345 31.1731C23.2552 33.4081 20.2623 34.4307 16.976 34.5475C14.3206 34.6352 11.6798 34.5914 9.02442 34.5621C8.39357 34.5621 8.18818 34.7666 8.20285 35.3802C8.21752 39.0613 8.21752 44.3202 8.21752 48.0013C8.21752 48.3373 8.21752 48.6733 8.17351 48.9947C8.15884 49.1554 7.83608 49.2284 7.33727 49.243C3.28811 49.3306 0.00183105 45.6203 0.00183105 42.4796C0.00183105 38.813 0.00183105 32.3271 0.00183105 29.537ZM8.20285 22.5399C8.20285 23.9861 8.23219 25.4322 8.18818 26.8784C8.17351 27.5504 8.36423 27.8133 9.06843 27.7841C10.6382 27.7403 12.2227 27.7841 13.7925 27.7695C14.9808 27.7549 16.1838 27.8718 17.3575 27.638C20.6291 26.9807 22.4189 24.0737 21.4213 20.8746C20.7464 18.698 18.7072 17.3687 16.1545 17.3249C13.7484 17.2811 11.3277 17.3249 8.92172 17.2957C8.34956 17.2957 8.15884 17.5002 8.17351 18.0407C8.21752 19.5453 8.20285 21.0499 8.20285 22.5399Z" fill="white"/>
<path d="M79.2539 49.5058C74.3392 49.4766 70.1873 47.8113 67.2238 43.7796C65.0672 40.8434 64.3043 37.4836 64.4657 33.8901C64.5684 31.509 65.0965 29.2302 66.2555 27.1412C68.2801 23.4747 71.3903 21.1959 75.4835 20.3048C79.694 19.3845 83.7725 19.7643 87.5136 21.9993C91.196 24.1905 93.2793 27.5064 93.9981 31.6989C94.7317 35.9498 94.1008 39.9377 91.6214 43.5312C89.3034 46.891 85.9878 48.7024 81.9827 49.3451C81.0731 49.4912 80.1782 49.4766 79.2539 49.5058ZM79.2686 42.8593C81.924 42.8739 84.1393 41.8951 85.7091 39.7478C87.0881 37.8634 87.4843 35.7014 87.1615 33.3934C86.7214 30.2381 85.1222 27.9593 82.056 26.9659C78.8578 25.9288 75.8943 26.4693 73.5029 28.9672C71.8158 30.7348 71.3903 32.9405 71.4783 35.307C71.6397 39.704 74.882 42.8447 79.2686 42.8593Z" fill="white"/>
<path d="M46.3472 49.4917C42.4154 49.5501 38.909 48.4107 35.9895 45.7375C33.8182 43.7508 32.4685 41.2529 31.8817 38.3898C31.1775 34.9861 31.3095 31.6263 32.6886 28.398C34.5518 24.0449 37.8527 21.3278 42.4741 20.3199C47.066 19.3119 51.4673 19.8232 55.4138 22.5695C59.0962 25.1405 60.8713 28.8362 61.2528 33.204C61.5315 36.3593 61.0327 39.4123 59.4629 42.2316C57.2036 46.3072 53.6679 48.5422 49.12 49.3456C48.2104 49.4917 47.2861 49.4917 46.3472 49.4917ZM46.3031 42.8597C50.9685 42.8744 54.2988 39.5146 54.3134 34.7524C54.3428 29.9756 51.0859 26.6012 46.5085 26.5136C42.254 26.4406 38.5276 29.4352 38.4982 34.5187C38.4836 39.4853 41.6231 42.8305 46.3031 42.8597Z" fill="white"/>
<path d="M143.85 48.8485C142.999 48.6294 142.177 48.4249 141.356 48.235C128.225 45.1527 118.543 45.737 111.779 47.4023C104.503 49.1991 100.6 52.2375 99.3971 53.3039C99.2944 53.3915 99.3971 53.5376 99.5291 53.4938C105.001 51.4779 109.725 50.543 114.801 50.4408C115.418 50.4408 116.034 50.4262 116.65 50.4408C127.213 50.7621 135.003 53.114 150.877 56.6491C172.033 61.3528 179.925 58.0368 181.877 56.7513C182.082 56.6199 181.965 56.2985 181.73 56.3131C173.456 56.9412 175.568 57.1311 143.85 48.8485Z" fill="#E6B12B"/>
<path d="M158.814 40.6828C159.254 40.1131 159.474 40.1715 159.885 40.6974C161.66 43.0054 163.479 45.2696 165.255 47.5631C165.753 48.2058 166.326 48.5126 167.132 48.4688C168.159 48.4249 169.186 48.4541 170.228 48.4541C171.402 48.4541 172.575 48.4541 173.764 48.4541C174.116 48.4541 174.468 48.4103 174.659 48.0597C174.864 47.6945 174.732 47.344 174.512 47.0372C174.38 46.8619 174.248 46.6866 174.116 46.5113C171.196 42.7571 168.262 38.9883 165.343 35.2341C164.257 33.8463 164.272 33.8463 165.343 32.5024C168.379 28.6751 171.416 24.8479 174.453 21.006C174.747 20.6408 175.069 20.2464 174.805 19.7498C174.571 19.2823 174.086 19.2969 173.632 19.2969C171.446 19.2969 169.26 19.2969 167.088 19.2969C166.414 19.2969 165.871 19.4868 165.431 20.0565C163.611 22.3792 161.734 24.6726 159.929 27.0099C159.518 27.5357 159.328 27.5211 158.931 27.0099C157.2 24.7456 155.41 22.496 153.665 20.2464C153.313 19.7936 152.931 19.3554 152.315 19.3407C149.865 19.3261 147.415 19.2969 144.965 19.3407C144.129 19.3554 143.864 19.9397 144.275 20.6701C144.378 20.86 144.525 21.0353 144.657 21.2106C147.752 25.1547 150.818 29.1134 153.943 33.0283C154.442 33.6564 154.398 34.0216 153.929 34.6059C151.919 37.0893 147.019 42.7863 144.803 45.518C147.87 46.3068 150.642 47.008 153.166 47.6361C154.56 45.854 157.831 41.9537 158.814 40.6828Z" fill="#E6B12B"/>
<path d="M141.356 44.5686C141.488 44.5978 141.62 44.627 141.737 44.6562C141.737 43.1516 141.737 40.7121 141.737 39.7626C141.737 38.4041 141.532 38.2142 140.182 38.2142C133.903 38.2142 127.624 38.1996 121.359 38.2288C120.728 38.2288 120.508 38.0389 120.508 37.3962C120.538 35.1904 120.523 33.0722 120.523 30.8665C120.523 29.7855 120.523 29.7855 121.609 29.7855C126.67 29.7855 131.732 29.7855 136.793 29.7855C138.157 29.7855 138.48 29.4641 138.495 28.1348C138.495 27.0246 138.495 25.1402 138.495 24.03C138.495 22.5984 138.172 22.2771 136.749 22.2771C131.717 22.2771 126.538 22.2625 121.418 22.2917C120.699 22.2917 120.508 22.0579 120.508 21.3714C120.538 19.2971 120.523 16.9452 120.523 14.8709C120.523 13.8337 120.523 13.8337 121.565 13.8337C127.741 13.8337 133.918 13.8337 140.109 13.8337C141.268 13.8337 141.59 13.4978 141.605 12.373C141.605 10.8537 141.605 9.31992 141.605 7.80071C141.605 6.39836 141.4 6.19385 140.021 6.19385C131.262 6.19385 122.504 6.19385 113.745 6.19385C113.554 6.19385 113.349 6.19385 113.158 6.20846C112.645 6.23767 112.337 6.51522 112.234 6.98267C112.175 7.28944 112.161 7.61081 112.161 7.91757C112.161 13.7753 112.161 18.1723 112.161 24.03C112.161 25.6076 112.161 27.1707 112.161 28.7483C112.161 32.634 112.161 39.7042 112.161 43.5899C112.836 43.4292 113.569 43.2977 114.332 43.1955C120.904 41.983 129.78 41.8662 141.356 44.5686Z" fill="#E6B12B"/>
<path d="M107.877 44.9192C107.877 42.7427 107.877 35.4095 107.877 30.9687C107.877 24.629 107.877 18.2892 107.877 11.9494C107.877 10.8538 107.539 10.5178 106.483 10.5178C104.37 10.5032 102.258 10.5032 100.145 10.5178C99.8518 10.5178 99.5731 10.7077 99.485 10.9999C99.353 11.4819 99.3677 12.037 99.3677 12.5775C99.3677 24.293 99.3677 47.4756 99.3677 49.7252C99.3677 49.696 99.3823 49.6668 99.4117 49.6522C100.38 48.7757 103.094 46.6429 107.877 44.9192Z" fill="white"/>
<path d="M181.422 3.21372C181.158 2.58559 180.762 2.01588 180.278 1.53382C179.793 1.05176 179.221 0.67196 178.576 0.409019C177.916 0.146078 177.211 0 176.492 0C175.774 0 175.069 0.146078 174.409 0.409019C173.778 0.67196 173.206 1.05176 172.707 1.53382C172.209 2.01588 171.827 2.58559 171.563 3.21372C171.284 3.87107 171.138 4.55764 171.138 5.27343C171.138 5.98921 171.284 6.67578 171.563 7.33313C171.827 7.96127 172.223 8.53097 172.707 9.01303C173.191 9.49509 173.764 9.87489 174.409 10.1378C175.069 10.4154 175.774 10.5469 176.492 10.5469C177.211 10.5469 177.916 10.4008 178.576 10.1378C179.207 9.87489 179.779 9.49509 180.278 9.01303C180.776 8.53097 181.158 7.96127 181.422 7.33313C181.701 6.67578 181.847 5.98921 181.847 5.27343C181.847 4.55764 181.701 3.87107 181.422 3.21372ZM176.492 9.45126C174.145 9.45126 172.223 7.58146 172.223 5.27343C172.223 2.96539 174.13 1.09559 176.492 1.09559C178.84 1.09559 180.762 2.96539 180.762 5.27343C180.762 7.58146 178.854 9.45126 176.492 9.45126Z" fill="white"/>
<path d="M178.546 6.16433C178.385 5.81374 178.15 5.53619 177.872 5.31707C178.517 4.9957 178.84 4.49904 178.84 3.82708C178.84 3.27198 178.59 2.83374 178.106 2.51237C177.637 2.20561 176.991 2.04492 176.184 2.04492C175.656 2.04492 175.055 2.10335 174.395 2.20561L174.307 2.22022V8.23864H175.392V5.69688H176.39C176.801 5.69688 177.123 5.88678 177.387 6.2958C177.666 6.70482 177.857 7.34756 177.989 8.18021L178.004 8.26785H179.089L179.075 8.13638C178.913 7.24531 178.737 6.57335 178.546 6.16433ZM176.346 4.82041H175.392V2.99443C175.612 2.97982 175.876 2.96521 176.199 2.96521C177.27 2.96521 177.798 3.27198 177.798 3.88551C177.784 4.51364 177.314 4.82041 176.346 4.82041Z" fill="white"/>
</svg>
