<svg width="91" height="104" viewBox="0 0 91 104" fill="none" xmlns="http://www.w3.org/2000/svg">
<g clip-path="url(#clip0_502_293)">
<path d="M38.9379 104C37.5135 103.508 36.988 102.498 37.0539 100.981C37.1381 98.9863 37.0539 96.9864 37.0868 94.9902C37.0978 94.364 36.933 94.0583 36.3124 93.8253C34.2691 93.0332 32.2514 92.1684 30.2575 91.2588C29.7083 91.009 29.4043 91.0035 28.9759 91.4452C27.5221 92.981 26.0318 94.4795 24.5414 95.978C23.2598 97.266 22.1796 97.2827 20.9144 96.0079C18.129 93.1959 15.3551 90.3716 12.5929 87.5349C11.3607 86.2693 11.3808 85.1343 12.635 83.8426C14.27 82.1652 15.9307 80.4877 17.4595 78.9333C16.4818 76.3891 15.5608 73.9401 14.5813 71.5152C14.4916 71.2934 14.032 71.1108 13.7427 71.1052C11.65 71.0716 9.55361 71.094 7.45905 71.0847C5.62814 71.0847 4.84265 70.2851 4.82617 68.4362C4.81519 67.221 4.82617 66.0132 4.82617 64.647C3.97297 64.647 3.18751 64.6656 2.40022 64.647C0.789012 64.6023 0.0200294 63.8288 0.0200294 62.1923C0.00172028 58.638 0.0200187 55.0855 0.0090332 51.5312C0.0090332 50.3663 0.53271 49.6171 1.55619 49.1772C2.5046 48.7709 3.43284 48.3049 4.40506 47.9732C5.13742 47.7197 5.32054 47.2947 5.30773 46.5492C5.24365 41.9287 5.66109 37.3661 7.00132 32.919C9.61098 24.2596 14.4775 17.2224 21.601 11.8073C24.531 9.57425 27.7688 7.79374 31.2096 6.52338C31.9237 6.26058 32.1892 5.89341 32.1251 5.12737C32.0574 4.25323 32.094 3.36791 32.1123 2.48818C32.1471 0.810729 32.927 0.00928877 34.5877 0.00369727C38.3117 -0.0112134 42.0358 0.00369727 45.7562 0.00369727C49.213 0.00369727 52.6703 0.00369727 56.1283 0.00369727C58.0142 0.00369727 58.7996 0.7977 58.8363 2.69322C58.8564 3.81152 58.4921 5.17956 59.0011 5.9661C59.5101 6.75263 60.8997 6.89802 61.8829 7.36957C73.7088 13.0356 81.2906 22.3045 84.5258 35.1947C85.4614 38.9224 85.703 42.7395 85.6042 46.5753C85.5859 47.2891 85.7782 47.6749 86.4611 47.921C87.4608 48.2807 88.4183 48.7616 89.3997 49.1772C90.4707 49.6282 90.9999 50.4241 90.998 51.6151C90.9889 55.1005 90.9981 58.5877 90.9889 62.0731C90.9889 63.8176 90.1906 64.6153 88.4952 64.6526C87.7628 64.6694 87.0433 64.6526 86.1571 64.6526C86.1571 65.8436 86.1571 66.9451 86.1571 68.0466C86.1571 70.3876 85.4724 71.0921 83.2075 71.0921H76.7261C75.6404 73.5878 74.5894 75.9512 73.6044 78.3425C73.5018 78.5885 73.7015 79.088 73.9193 79.3265C75.3474 80.8381 76.825 82.3087 78.2769 83.7997C79.6409 85.1995 79.6482 86.2507 78.2934 87.6355C75.5726 90.4176 72.8458 93.1935 70.1129 95.9631C68.7891 97.3051 67.7326 97.3051 66.4199 95.9631C64.9551 94.4888 63.4904 93.0145 62.055 91.503C61.6193 91.0426 61.2952 90.9885 60.7001 91.2625C58.7081 92.1795 56.6831 93.0239 54.6471 93.829C54.0979 94.0434 53.8708 94.2577 53.8836 94.8821C53.9257 96.9118 53.9001 98.9434 53.8983 100.973C53.8983 102.854 53.5889 103.318 51.9063 103.998L38.9379 104ZM86.8071 60.3397C86.8071 58.83 86.8199 57.4153 86.8071 56.0025C86.7961 54.9252 87.1147 53.6019 86.624 52.834C86.1333 52.0661 84.8334 51.7661 83.8319 51.4455C81.9753 50.8491 81.3345 49.6599 81.4224 47.7029C81.5945 43.8429 81.4041 39.9941 80.4941 36.2124C78.3495 27.307 73.6264 20.1753 66.3247 14.8174C64.0325 13.1307 61.5319 11.7589 58.8875 10.7375V41.3659C58.8875 43.6938 58.1991 44.4002 55.916 44.402H35.0601C32.7513 44.402 32.1086 43.7385 32.1086 41.3752V10.7412C31.7076 10.8997 31.4367 10.9984 31.1712 11.114C25.7884 13.4346 21.0624 17.0909 17.4247 21.749C13.1147 27.2473 10.4819 33.4912 9.81358 40.5067C9.5664 43.0918 9.57558 45.7086 9.55727 48.3105C9.54811 49.7494 9.00799 50.6813 7.67142 51.1827C6.73765 51.5312 5.85149 52.0065 4.92505 52.3606C4.37578 52.5694 4.17255 52.8657 4.19269 53.4789C4.2348 55.0688 4.20551 56.6586 4.20551 58.2503V60.3471L86.8071 60.3397ZM74.1738 85.6058C72.7585 84.1669 71.2791 82.6665 69.8052 81.1643C68.4156 79.7478 68.3057 79.047 69.3292 77.3341C70.7831 74.9072 71.8787 72.2759 72.5809 69.5247C73.2071 67.083 73.5623 66.8184 76.0139 66.8184H81.8563V64.7066H62.7251C62.6464 65.0421 62.5622 65.3329 62.5109 65.6386C61.1084 73.9419 53.8782 80.1765 45.6262 80.2137C37.1455 80.2436 29.8804 74.1264 28.4157 65.6758C28.2729 64.852 27.9909 64.647 27.2146 64.6507C21.4966 64.6805 15.7787 64.6675 10.0608 64.6694C9.7367 64.6694 9.41259 64.6973 9.06472 64.7122V66.8296H15.0921C17.3222 66.8296 17.6554 67.221 18.3878 69.3811C19.175 71.7352 20.0172 74.1041 21.1487 76.2978C22.7837 79.4663 22.9064 79.4048 20.3834 81.9713C19.1714 83.2033 17.9538 84.4279 16.8644 85.5275L22.8643 91.6129C24.351 90.092 25.911 88.478 27.491 86.8844C28.4065 85.9655 29.2762 85.74 30.2759 86.3625C33.1997 88.1751 36.3817 89.5156 39.7087 90.3362C40.6516 90.5729 41.1442 91.2812 41.2412 92.2466C41.2837 92.7854 41.2995 93.3259 41.2888 93.8663C41.2888 95.7842 41.2888 97.7021 41.2888 99.6442H49.7C49.7 97.3107 49.689 95.0499 49.7 92.7872C49.7 91.3446 50.1779 90.6437 51.5584 90.3008C54.6921 89.5253 57.6875 88.2562 60.4365 86.5396C61.6339 85.7941 62.467 85.9413 63.485 86.9552C64.8874 88.3531 66.2606 89.7771 67.6521 91.1861C67.8535 91.3893 68.0805 91.5589 68.2728 91.7453L74.1738 85.6058ZM54.5464 4.35947H36.3453V40.0332H54.5464V4.35947ZM58.3016 64.7477H32.5993C33.5916 71.2953 39.5568 76.2494 45.943 75.9101C52.2633 75.5672 58.0636 70.3578 58.3071 64.7402L58.3016 64.7477Z" fill="#154A81"/>
<path d="M86.8071 60.3398H4.18906V58.243C4.18906 56.6512 4.21834 55.0614 4.17623 53.4716C4.15975 52.8658 4.35932 52.5695 4.90859 52.3533C5.84053 51.9991 6.72669 51.5239 7.65496 51.1753C8.9897 50.674 9.53166 49.742 9.54081 48.3032C9.55912 45.6938 9.54079 43.0844 9.79712 40.4993C10.4654 33.4801 13.0928 27.24 17.4082 21.7417C21.0459 17.0835 25.7719 13.4272 31.1547 11.1067C31.4202 10.9911 31.6912 10.8923 32.0921 10.7339V41.3734C32.0921 43.7368 32.7348 44.3984 35.0436 44.4003H55.8903C58.1735 44.4003 58.8601 43.692 58.8619 41.3641V10.7432C61.5063 11.7646 64.0069 13.1364 66.2991 14.8231C73.5959 20.1798 78.3191 27.3114 80.4685 36.2181C81.384 39.9998 81.5671 43.8486 81.3968 47.7086C81.3089 49.6656 81.9461 50.8547 83.8063 51.4512C84.8078 51.7717 86.1023 52.0774 86.5984 52.8397C87.0946 53.602 86.7815 54.9253 86.7815 56.0082C86.82 57.4154 86.8071 58.8301 86.8071 60.3398Z" fill="white"/>
<path d="M74.1795 85.6022L68.2712 91.7361C68.0789 91.5665 67.8519 91.3876 67.6505 91.177C66.259 89.7679 64.8858 88.3439 63.4834 86.946C62.4654 85.9321 61.6323 85.7849 60.4349 86.5304C57.6859 88.2471 54.6905 89.5161 51.5568 90.2916C50.1763 90.6346 49.7057 91.3354 49.6984 92.778C49.6838 95.0407 49.6984 97.3015 49.6984 99.635H41.2872C41.2872 97.6948 41.2872 95.7769 41.2872 93.8571C41.298 93.3168 41.2821 92.7762 41.2396 92.2375C41.1426 91.272 40.65 90.56 39.7071 90.327C36.3801 89.5027 33.1986 88.1585 30.2761 86.3422C29.2764 85.7196 28.4049 85.9452 27.4913 86.864C25.9112 88.4576 24.3512 90.0717 22.8645 91.5926L16.8646 85.5072C17.954 84.4075 19.1716 83.183 20.3837 81.951C22.9067 79.3845 22.784 79.4478 21.149 76.2775C20.0175 74.0837 19.1753 71.7148 18.388 69.3608C17.6684 67.2006 17.3279 66.8092 15.0923 66.8092H9.06494V64.6919C9.41281 64.677 9.73692 64.649 10.061 64.649C15.7789 64.649 21.4969 64.6602 27.2148 64.6304C27.9911 64.6304 28.2731 64.8317 28.4159 65.6555C29.8806 74.1098 37.1402 80.2269 45.6265 80.1934C53.8784 80.1636 61.1087 73.9216 62.5111 65.6182C62.5624 65.32 62.6466 65.0292 62.7253 64.6863H81.862V66.798H76.0196C73.568 66.798 73.2128 67.0627 72.5866 69.5043C71.8844 72.2556 70.7888 74.8868 69.3349 77.3138C68.3115 79.0266 68.4195 79.7274 69.811 81.1439C71.2848 82.6667 72.7642 84.1671 74.1795 85.6022Z" fill="white"/>
<path d="M54.552 4.35938V40.0331H36.3508V4.35938H54.552Z" fill="white"/>
<path d="M58.3072 64.7402C58.0637 70.3578 52.2652 75.5672 45.9431 75.9027C39.555 76.2419 33.5917 71.2879 32.5994 64.7402H58.3072Z" fill="white"/>
</g>
<defs>
<clipPath id="clip0_502_293">
<rect width="91" height="104" fill="white"/>
</clipPath>
</defs>
</svg>
