<svg width="21" height="27" viewBox="0 0 21 27" fill="none" xmlns="http://www.w3.org/2000/svg">
<path d="M20.9981 24.1499C20.945 22.6418 20.8691 21.1344 20.8006 19.627C20.6591 16.5462 20.5166 13.4654 20.3731 10.3845C20.3436 9.75784 20.32 9.12965 20.2714 8.50597C20.2164 7.85029 19.9252 7.23859 19.4541 6.78877C18.983 6.33895 18.3653 6.08286 17.72 6.06985C17.0884 6.05858 16.4561 6.06985 15.7884 6.06985C15.8894 4.4633 15.5187 3.02733 14.47 1.82881C13.4213 0.630288 12.0844 0.00810743 10.4999 0.000593186C9.23507 -0.0189068 8.00851 0.442974 7.05973 1.29605C5.64327 2.54492 5.09202 4.16349 5.21067 6.06985C4.53045 6.06985 3.90476 6.06158 3.28054 6.06985C2.70124 6.08081 2.14204 6.2883 1.69132 6.65954C1.24061 7.03077 0.92409 7.54457 0.791792 8.11973C0.724426 8.48787 0.687693 8.86116 0.681984 9.2356C0.595758 11.0142 0.519851 12.7936 0.438047 14.5707C0.290653 17.7635 0.13589 20.9578 0.00176129 24.1491C-0.0653031 25.7609 1.10721 26.9933 2.69244 26.9948C7.89693 27.0003 13.1017 27.0003 18.3066 26.9948C19.8926 26.9925 21.0548 25.7647 20.9981 24.1499ZM8.39586 2.50885C9.60523 1.60714 10.9274 1.51396 12.2281 2.26388C13.6453 3.08068 14.1442 4.40995 14.0145 6.04956H6.9853C6.85559 4.61735 7.22997 3.382 8.3966 2.51336L8.39586 2.50885ZM18.2521 25.1913C15.6673 25.1913 13.083 25.1913 10.4992 25.1913H2.80225C2.07412 25.1913 1.73733 24.8367 1.77049 24.0958C1.96996 19.733 2.17116 15.3697 2.37407 11.006C2.40723 10.2756 2.43008 9.54443 2.4743 8.8148C2.51336 8.17609 2.8472 7.8665 3.46626 7.865C6.76789 7.85598 10.0693 7.84772 13.3704 7.84021C14.75 7.8362 16.1294 7.83069 17.5085 7.82367C18.1379 7.82367 18.4901 8.13702 18.5233 8.78549C18.6154 10.5731 18.6921 12.3623 18.7754 14.1507C18.9164 17.1939 19.0571 20.237 19.1976 23.2797C19.2109 23.5698 19.2205 23.8606 19.2301 24.1514C19.2544 24.8201 18.908 25.1951 18.2528 25.1951L18.2521 25.1913Z" fill="white"/>
<path d="M13.4066 14.4734H11.3475V12.3739C11.3475 12.1447 11.2582 11.9249 11.0993 11.7629C10.9404 11.6008 10.7248 11.5098 10.5 11.5098C10.2752 11.5098 10.0597 11.6008 9.90072 11.7629C9.74178 11.9249 9.65249 12.1447 9.65249 12.3739V14.4734H7.58897C7.3642 14.4734 7.14863 14.5644 6.98969 14.7265C6.83075 14.8885 6.74146 15.1083 6.74146 15.3375C6.74146 15.5667 6.83075 15.7865 6.98969 15.9486C7.14863 16.1106 7.3642 16.2017 7.58897 16.2017H9.65249V18.3056C9.65249 18.5348 9.74178 18.7546 9.90072 18.9167C10.0597 19.0787 10.2752 19.1698 10.5 19.1698C10.7248 19.1698 10.9404 19.0787 11.0993 18.9167C11.2582 18.7546 11.3475 18.5348 11.3475 18.3056V16.2017H13.4066C13.6314 16.2017 13.847 16.1106 14.0059 15.9486C14.1648 15.7865 14.2541 15.5667 14.2541 15.3375C14.2541 15.1083 14.1648 14.8885 14.0059 14.7265C13.847 14.5644 13.6314 14.4734 13.4066 14.4734Z" fill="white"/>
</svg>
