<svg width="24" height="28" viewBox="0 0 24 28" fill="none" xmlns="http://www.w3.org/2000/svg">
<path d="M19.1066 7.78247C20.0728 7.79227 21.4159 7.79647 22.5553 7.79227C23.1389 7.79087 23.4355 7.08667 23.0308 6.66247C21.567 5.12527 18.9486 2.37427 17.4502 0.800665C17.0357 0.365265 16.3108 0.664865 16.3108 1.26827V4.95867C16.3108 6.50707 17.5736 7.78247 19.1066 7.78247Z" fill="white"/>
<path fill-rule="evenodd" clip-rule="evenodd" d="M15.1367 20.146H7.59612C7.02781 20.146 6.55652 19.67 6.55652 19.096C6.55652 18.522 7.02781 18.06 7.59612 18.06H15.1367C15.705 18.06 16.1763 18.522 16.1763 19.096C16.1763 19.67 15.705 20.146 15.1367 20.146ZM7.59612 11.06H12.2813C12.8496 11.06 13.3209 11.536 13.3209 12.11C13.3209 12.684 12.8496 13.146 12.2813 13.146H7.59612C7.02781 13.146 6.55652 12.684 6.55652 12.11C6.55652 11.536 7.02781 11.06 7.59612 11.06ZM23.1762 9.828C22.5802 9.828 21.8733 9.842 21.4436 9.842C20.8059 9.842 19.9743 9.828 18.9208 9.828C16.3842 9.814 14.2911 7.714 14.2911 5.152V0.644C14.2911 0.294 14.0139 0 13.6535 0H6.25148C2.8 0 0 2.842 0 6.314V21.406C0 25.046 2.93861 28 6.54257 28H17.5762C21.0139 28 23.8 25.186 23.8 21.714V10.458C23.8 10.108 23.5228 9.828 23.1762 9.828Z" fill="white"/>
</svg>
