<svg width="19" height="19" viewBox="0 0 19 19" fill="none" xmlns="http://www.w3.org/2000/svg">
<path d="M18.0432 2.87036C18.5716 2.34194 18.5716 1.4852 18.0432 0.956785C17.5148 0.428367 16.6581 0.428368 16.1296 0.956786L9.5 7.58643L2.87036 0.956787C2.34194 0.428369 1.4852 0.428367 0.956786 0.956786C0.428367 1.4852 0.428367 2.34194 0.956786 2.87036L7.58643 9.5L0.956786 16.1296C0.428368 16.6581 0.428367 17.5148 0.956785 18.0432C1.4852 18.5716 2.34194 18.5716 2.87036 18.0432L9.5 11.4136L16.1296 18.0432C16.6581 18.5716 17.5148 18.5716 18.0432 18.0432C18.5716 17.5148 18.5716 16.6581 18.0432 16.1296L11.4136 9.5L18.0432 2.87036Z" fill="#1A365D"/>
</svg>
