<svg width="151" height="130" viewBox="0 0 151 130" fill="none" xmlns="http://www.w3.org/2000/svg">
<path d="M0.0229602 59.2877C0.811293 58.2928 1.8369 57.9636 3.10742 57.9789C8.82475 58.0249 14.5344 57.9943 20.2517 58.0019C23.3898 58.0096 24.821 59.3183 25.02 62.4487C25.0736 63.3595 25.4486 63.6197 26.2829 63.6121C30.4312 63.5891 34.5872 63.5815 38.7355 63.6197C39.6539 63.6274 40.1514 63.1682 40.6413 62.5099C43.7869 58.3387 47.0092 54.221 50.1089 50.0114C52.7418 46.4295 56.1324 44.6768 60.6251 44.7839C66.5338 44.9217 72.4425 44.8452 78.3588 44.8069C80.5248 44.7916 82.5148 45.3044 84.3593 46.4142C93.5744 51.9325 102.797 57.4432 111.997 62.9921C113.091 63.6504 114.178 63.9641 115.449 63.9412C118.181 63.8876 120.921 63.8876 123.654 63.9412C124.733 63.9641 125.085 63.5815 125.1 62.4946C125.146 59.525 126.707 58.0096 129.669 58.0019C135.532 57.9866 141.395 57.9866 147.25 58.0019C149.194 58.0019 150.197 58.8744 150.181 60.4741C150.166 62.0507 149.148 62.9003 147.189 62.9003C142.015 62.9079 136.833 62.9386 131.659 62.885C130.435 62.8697 129.945 63.1529 129.945 64.4999C129.991 78.5215 129.991 92.5355 129.945 106.557C129.937 107.988 130.488 108.279 131.759 108.264C136.542 108.21 141.334 108.233 146.117 108.249C146.844 108.249 147.587 108.279 148.298 108.44C149.638 108.738 150.258 109.649 150.181 111.012C150.105 112.336 149.301 113.07 148.069 113.254C147.158 113.384 146.217 113.315 145.291 113.315C140.308 113.323 135.325 113.323 130.343 113.315C126.516 113.315 125.085 111.853 125.077 107.981C125.077 95.6199 125.054 83.2668 125.108 70.9061C125.115 69.4366 124.725 68.9314 123.225 68.9926C120.493 69.1075 117.753 69.0156 115.02 69.0309C113.214 69.0386 111.568 68.5794 110.015 67.6456C100.891 62.1502 91.7528 56.7008 82.6372 51.1977C80.9917 50.2028 79.2619 49.7282 77.3561 49.7359C71.7842 49.7512 66.22 49.7665 60.6481 49.7282C57.9616 49.7129 55.8645 50.6696 54.2496 52.8816C50.7289 57.6881 47.101 62.4181 43.5344 67.194C41.2459 70.2632 41.575 73.7839 44.315 75.9116C47.0933 78.07 50.6676 77.45 53.0479 74.3962C55.7191 70.9673 58.3902 67.5384 61.069 64.1172C63.8779 60.52 67.3757 59.8082 71.2485 62.2038C85.6145 71.0974 99.9652 80.0217 114.308 88.9536C117.538 90.9665 119.191 93.8749 118.64 97.7171C118.105 101.475 115.541 104.391 111.851 104.82C109.433 105.103 108.407 105.876 107.634 108.203C106.456 111.731 102.499 113.66 98.733 113.132C97.8758 113.009 97.562 113.185 97.3477 114.073C96.1843 118.941 92.2197 121.62 87.2907 120.831C86.2651 120.671 85.9436 120.946 85.6451 121.865C83.8848 127.329 78.5195 129.587 73.3303 127.107C72.2741 126.602 71.1949 126.151 70.1387 125.63C68.4319 124.781 68.011 123.74 68.6003 121.91C68.7534 121.451 68.983 121.015 69.159 120.556C69.7254 119.086 69.2738 117.601 68.0339 116.828C66.7634 116.032 65.1485 116.155 64.1918 117.349C63.2197 118.558 62.3472 119.882 61.6125 121.252C60.87 122.63 61.2527 123.862 62.6227 125.156C63.5718 126.051 64.0157 127.038 63.4264 128.294C62.7299 129.771 61.092 130.108 59.5689 129.12C56.2702 126.977 55.2216 122.148 57.3034 118.558C57.9616 117.418 58.7576 116.354 59.4464 115.229C60.5103 113.484 60.1965 111.632 58.7194 110.705C57.2039 109.756 55.4742 110.216 54.3108 111.915C53.6985 112.803 53.1015 113.69 52.5581 114.624C51.5478 116.369 51.7774 117.563 53.3311 119.033C54.6476 120.28 54.7394 121.956 53.5148 122.982C52.4509 123.862 51.3641 123.709 50.2773 122.99C47.0857 120.877 45.9606 116.216 47.8664 112.695C48.5169 111.494 49.3359 110.392 50.0477 109.228C51.1881 107.376 50.9279 105.562 49.4048 104.598C47.9199 103.649 46.1137 104.184 44.8967 105.952C44.315 106.794 43.7334 107.644 43.2129 108.524C42.2638 110.147 42.4705 111.455 43.8099 112.741C45.3177 114.18 45.5167 115.481 44.4145 116.668C43.3966 117.762 41.8352 117.655 40.3734 116.392C37.4114 113.82 36.7379 109.565 38.7814 106.144C39.4855 104.973 40.2892 103.863 40.978 102.684C41.9194 101.085 41.5291 99.3779 40.0749 98.4595C38.7278 97.6023 36.9445 97.9543 35.9266 99.3473C35.2071 100.327 34.5259 101.353 33.9136 102.409C32.9799 104.016 33.2018 105.355 34.5336 106.626C35.9648 107.996 36.1868 109.289 35.1918 110.445C34.1968 111.601 32.5589 111.57 31.1583 110.338C29.3826 108.784 28.2958 106.84 28.3647 104.452C28.4106 102.952 27.5151 103.136 26.5584 103.082C25.4716 103.029 24.9205 103.304 24.9971 104.544C25.0889 106.052 25.043 107.575 25.0047 109.083C24.9511 111.455 23.3515 113.262 21.0018 113.285C14.8023 113.361 8.59513 113.315 2.39562 113.315C1.37002 113.315 0.681181 112.703 0 112.06C0 111.279 0 110.499 0 109.718C0.834256 108.463 2.09713 108.249 3.4748 108.249C8.41144 108.256 13.3404 108.21 18.2771 108.272C19.6318 108.287 20.1522 107.942 20.1522 106.473C20.0987 92.5049 20.1063 78.5368 20.1446 64.5611C20.1446 63.2983 19.8078 62.862 18.499 62.8773C13.417 62.9462 8.34256 62.8697 3.26049 62.9233C1.95171 62.9386 0.857224 62.663 0.00766119 61.6298C0.0229686 60.8491 0.0229602 60.0684 0.0229602 59.2877ZM25.043 83.3434C25.043 87.7902 25.0353 92.237 25.0506 96.6762C25.0506 97.1813 24.844 97.9849 25.5175 98.0462C27.0636 98.1916 28.6402 98.1839 30.1939 98.1074C31.0971 98.0615 31.319 97.0971 31.7629 96.4925C35.6587 91.1349 43.144 91.8467 45.9223 97.8854C46.3356 98.7886 46.8561 99.0718 47.8205 99.0718C51.2952 99.0871 53.775 100.771 55.1833 103.909C55.6119 104.85 56.0788 105.233 57.1274 105.225C60.6863 105.202 63.1432 106.963 64.5515 110.17C64.9189 110.996 65.2862 111.44 66.2506 111.356C71.1184 110.943 75.4274 115.925 74.3176 120.854C74.2181 121.306 74.0804 121.765 74.6085 122.163C76.4683 123.564 78.9481 123.342 80.2493 121.612C81.5198 119.921 80.9993 117.777 78.9558 116.339C77.8001 115.527 76.6138 114.747 75.4887 113.889C74.708 113.292 74.2717 112.458 74.509 111.448C74.7462 110.415 75.4274 109.749 76.4607 109.473C77.3638 109.236 78.0679 109.68 78.7721 110.139C81.4356 111.861 84.0838 113.621 86.7855 115.275C89.1658 116.737 91.7758 115.665 92.4187 113.07C92.7784 111.624 92.0896 110.2 90.4899 109.152C88.2857 107.698 86.0661 106.274 83.8771 104.812C82.2852 103.748 81.8871 102.401 82.7138 101.108C83.5404 99.8218 84.9869 99.6305 86.5712 100.61C86.9003 100.817 87.2218 101.039 87.5509 101.253C90.9874 103.488 94.401 105.769 98.0442 107.667C99.4295 108.386 100.769 108.386 102.039 107.453C103.218 106.588 103.608 105.378 103.386 103.962C103.203 102.746 102.414 101.98 101.435 101.353C98.1513 99.2402 94.8526 97.143 91.5921 94.9847C90.268 94.1045 89.9771 92.7192 90.7119 91.5558C91.4849 90.3159 92.8703 90.0251 94.2862 90.8134C94.8832 91.1502 95.4496 91.5329 96.0236 91.9002C100.072 94.4566 104.014 97.1813 108.193 99.508C110.053 100.541 112.165 100.013 113.191 98.3064C114.194 96.6455 113.696 94.6632 111.959 93.4386C111.721 93.2703 111.469 93.1172 111.224 92.9641C97.2482 84.2695 83.2725 75.5748 69.2891 66.8955C66.84 65.3724 66.3731 65.4796 64.5821 67.768C61.7808 71.3423 59.0561 74.9855 56.1554 78.4756C53.1321 82.1111 47.9046 83.2056 43.6186 81.2998C39.1794 79.3328 36.4776 74.7789 37.0517 70.0871C37.1894 68.985 36.8144 68.6942 35.8118 68.7095C32.735 68.7324 29.6582 68.763 26.5814 68.6942C25.3491 68.6712 24.9894 69.1304 25.0047 70.3167C25.0812 74.6487 25.043 78.9961 25.043 83.3434Z" fill="#1A365D"/>
<path d="M105.047 36.1881C103.394 36.1881 101.733 36.2111 100.08 36.1804C98.2736 36.1422 97.1179 35.1089 97.1332 33.6164C97.1485 32.1775 98.2659 31.1366 99.988 31.1137C103.302 31.0677 106.616 31.0754 109.93 31.1137C111.652 31.1366 112.777 32.1775 112.808 33.6088C112.839 35.0936 111.668 36.1269 109.869 36.1881C109.042 36.211 108.216 36.1957 107.382 36.1957C106.609 36.1881 105.828 36.1881 105.047 36.1881Z" fill="#1A365D"/>
<path d="M45.9376 36.188C44.2767 36.188 42.6158 36.2186 40.9626 36.1803C39.1946 36.1344 38.1001 35.17 38.0695 33.7158C38.0313 32.2233 39.1793 31.1365 40.9856 31.1135C44.2537 31.0676 47.5219 31.0676 50.79 31.1135C52.6499 31.1365 53.752 32.1468 53.7444 33.6622C53.7367 35.193 52.6575 36.1344 50.7671 36.1803C49.1598 36.2109 47.5525 36.188 45.9376 36.188Z" fill="#1A365D"/>
<path d="M72.6569 7.71645C72.6569 6.06325 72.6186 4.40239 72.6645 2.74918C72.7105 1.08833 73.6672 0.0474244 75.0908 0.00150205C76.499 -0.0444203 77.6548 0.965875 77.693 2.58846C77.7772 6.09387 77.7696 9.60693 77.6854 13.1123C77.6471 14.666 76.3919 15.7299 75.0219 15.661C73.6978 15.5921 72.7028 14.5283 72.6569 12.9822C72.611 11.2295 72.6569 9.46916 72.6569 7.71645Z" fill="#1A365D"/>
<path d="M60.3114 20.4596C60.3114 22.2583 58.4285 23.4752 56.806 22.6792C56.3391 22.4496 55.9105 22.0899 55.5354 21.7225C53.2852 19.4953 51.035 17.2604 48.8155 15.0102C47.499 13.6708 47.4225 12.2549 48.5323 11.1527C49.6268 10.0736 51.0504 10.173 52.3974 11.4971C54.6859 13.755 56.9437 16.0434 59.2245 18.3089C59.8368 18.8983 60.3037 19.5642 60.3114 20.4596Z" fill="#1A365D"/>
<path d="M91.8907 22.9703C90.9799 22.8555 90.2375 22.4422 89.8012 21.5927C89.342 20.6895 89.342 19.7022 90.0309 18.9904C92.6714 16.2657 95.3426 13.5639 98.0902 10.9463C99.001 10.0815 100.425 10.2805 101.274 11.1453C102.17 12.0638 102.3 13.1047 101.634 14.2068C101.412 14.5742 101.113 14.911 100.807 15.2248C98.649 17.3984 96.4753 19.5644 94.3093 21.7304C93.6358 22.3963 92.901 22.9321 91.8907 22.9703Z" fill="#1A365D"/>
</svg>
