<svg width="99" height="99" viewBox="0 0 99 99" fill="none" xmlns="http://www.w3.org/2000/svg">
<g clip-path="url(#clip0_501_262)">
<path d="M81.0168 0H82.5642C83.654 0.513619 84.8842 0.85281 85.7995 1.58447C87.1517 2.67963 88.3811 3.91845 89.466 5.27914C90.9868 7.17129 91.1756 9.36872 90.0907 11.5346C89.6258 12.4601 88.8484 13.2305 88.1534 14.03C87.4584 14.8295 86.6568 15.5515 85.7463 16.4528C87.4414 16.4528 88.8726 16.3413 90.2748 16.4843C91.6309 16.6199 93.0718 16.7798 94.2802 17.3443C97.6003 18.8925 99.0073 21.7052 99.0049 25.3175C99.0049 44.785 99.0049 64.2524 99.0049 83.7199C99.0049 84.655 99.0049 85.5878 99.0049 86.5229C98.954 91.2376 95.324 94.6803 91.2265 94.8014C89.1657 94.8644 87.1097 94.8741 85.044 94.8644C83.252 94.8644 82.5327 94.1158 82.5255 92.323C82.5255 89.4157 82.5255 86.5229 82.5255 83.6205V82.5763H64.363C64.5688 82.8186 64.6657 82.9276 64.7698 83.0367C66.465 84.8222 66.465 85.5635 64.7044 87.3176L54.1775 97.8444C52.6518 99.3659 51.6929 99.3707 50.1793 97.8444C45.3021 92.9682 40.4305 88.0872 35.5646 83.2014C35.3392 82.9586 35.0636 82.7678 34.7571 82.6423C34.4506 82.5168 34.1204 82.4595 33.7895 82.4746C27.6352 82.4988 21.4818 82.4988 15.3292 82.4746C14.5255 82.4993 13.7218 82.4244 12.9366 82.2517C9.97244 81.4812 8.29666 79.1554 8.28939 75.8484C8.27164 69.6285 8.27565 63.4101 8.30149 57.1934C8.32836 56.799 8.26563 56.4036 8.118 56.0369C7.97037 55.6701 7.74167 55.3416 7.44905 55.0759C5.85802 53.5714 4.31785 52.0087 2.79463 50.4364C1.82596 49.4479 0.942063 48.3989 0.0194092 47.3789V46.4098C0.411719 45.8696 0.745912 45.2711 1.20361 44.7987C3.32014 42.6344 5.46008 40.4919 7.62344 38.3712C7.84635 38.1696 8.0222 37.9215 8.13854 37.6443C8.25489 37.3671 8.30885 37.0677 8.29664 36.7673C8.27 32.2562 8.24338 27.7427 8.3136 23.2316C8.30471 22.1115 8.52303 21.0013 8.95535 19.9681C10.1371 17.4049 12.3602 16.4431 15.0943 16.4455C30.6849 16.4455 46.2756 16.4503 61.8663 16.46C62.1654 16.4752 62.4643 16.4245 62.7417 16.3115C63.0191 16.1984 63.2684 16.0259 63.4718 15.8059C67.6928 11.5492 71.9476 7.32634 76.1613 3.06718C77.5417 1.662 78.9971 0.404596 81.0168 0ZM12.3917 33.5039C13.864 32.5906 14.9005 33.1599 15.9394 34.2017C30.3919 48.6896 44.8533 63.1711 59.3235 77.6461C59.5469 77.8888 59.8207 78.0796 60.1257 78.2052C60.4307 78.3307 60.7594 78.388 61.0889 78.3729C70.7223 78.3511 80.3581 78.3366 89.9915 78.3729C91.2265 78.3729 92.4615 78.7097 93.6893 78.935C94.0924 79.0532 94.4833 79.2098 94.8566 79.4026C94.8711 79.0925 94.8856 78.901 94.8856 78.7072C94.8856 60.8808 94.8856 43.0543 94.8856 25.2279C94.8856 22.2528 93.2462 20.6247 90.2845 20.5908C87.7708 20.5714 85.2571 20.615 82.7458 20.569C82.3824 20.5476 82.0189 20.6076 81.6816 20.7447C81.3443 20.8817 81.0419 21.0924 80.7964 21.3612C73.7752 28.4259 66.7386 35.4736 59.6868 42.5044C58.7641 43.4274 57.8148 44.3239 56.7565 45.3487H74.1925V49.4867H73.466C63.5743 49.4867 53.6818 49.4867 43.7885 49.4867C41.8197 49.4867 40.8971 48.2244 41.5098 46.3638C42.786 42.4874 44.0598 38.5965 45.4062 34.7347C45.6894 33.9216 46.1426 33.1782 46.7357 32.5542C50.3682 28.8474 54.054 25.1964 57.7204 21.5236C57.9625 21.2813 58.1805 21.0245 58.5922 20.5763H15.4866C15.1002 20.5677 14.7136 20.5823 14.329 20.6199C13.1957 20.7556 12.4377 21.4242 12.4207 22.5581C12.3626 26.1873 12.3917 29.7899 12.3917 33.5039ZM38.6352 62.9789L34.5184 67.2962L31.5567 64.3889L35.8261 60.2121L30.4524 54.8288L26.2799 59.0395L23.2916 56.2243C24.7785 54.7707 26.2412 53.3509 27.5876 52.0378L22.0686 46.5237L17.993 50.7756L14.9538 47.8683L19.2644 43.7279L13.7938 38.2525L5.19935 46.8459L52.1287 93.7984L60.7959 85.1517L55.2793 79.6303L51.148 83.8458L48.0313 80.7884C49.4407 79.4026 50.901 77.9731 52.2619 76.6334L46.9924 71.3567L42.7424 75.6522C41.7543 74.6613 40.8293 73.7285 39.8122 72.7061L44.13 68.4688L38.6352 62.9789ZM78.6823 17.5842L73.202 12.0919C65.7433 19.5611 58.2144 27.0958 50.7629 34.5554L56.2165 40.0695L78.6823 17.5842ZM30.1546 78.3366L12.3747 60.5489C12.3747 65.4404 12.3747 70.5281 12.3747 75.6182C12.3747 77.663 13.0625 78.3632 15.0846 78.3632C19.9166 78.3632 24.7478 78.3632 29.5782 78.3632C29.8567 78.3632 30.1304 78.3366 30.1546 78.3366ZM81.9152 14.4661C83.2495 13.1264 84.6081 11.8011 85.9158 10.4347C86.8312 9.46562 86.8651 8.46017 86.003 7.51046C85.1408 6.56075 84.1819 5.6038 83.2084 4.71708C82.3874 3.96603 81.3485 3.87397 80.5881 4.59594C79.1085 6.00839 77.7306 7.52985 76.3744 8.93988L81.9152 14.4661ZM86.6883 82.5715V90.7143C88.2551 90.7143 89.7686 90.7991 91.2652 90.6925C93.2316 90.552 94.842 88.718 94.8493 86.7895C94.8493 84.5702 93.3963 82.7605 91.287 82.5957C89.788 82.477 88.2745 82.5715 86.6883 82.5715ZM48.426 38.6353C47.8424 40.3893 47.2467 42.1894 46.5928 44.1591L52.1142 42.3106L48.426 38.6353Z" fill="#154A81"/>
<path d="M12.3916 33.5039C12.3916 29.7898 12.3601 26.1872 12.411 22.5871C12.4279 21.4532 13.1859 20.7845 14.3192 20.6489C14.7039 20.6113 15.0904 20.5967 15.4768 20.6053H58.5824C58.1707 21.0535 57.9503 21.3127 57.7106 21.5525C54.0442 25.2254 50.356 28.8765 46.7259 32.5832C46.1329 33.2073 45.6797 33.9506 45.3965 34.7637C44.05 38.6207 42.7762 42.5164 41.5 46.3928C40.8873 48.2535 41.81 49.5157 43.7788 49.5157C53.6705 49.5157 63.563 49.5157 73.4563 49.5157H74.1828V45.3777H56.7468C57.805 44.3528 58.7543 43.4564 59.677 42.5334C66.7192 35.4929 73.7557 28.4452 80.7866 21.3902C81.0322 21.1214 81.3346 20.9107 81.6718 20.7737C82.0091 20.6366 82.3727 20.5766 82.7361 20.598C85.2473 20.644 87.761 20.598 90.2747 20.6198C93.2364 20.644 94.8758 22.2818 94.8758 25.2569C94.8758 43.0833 94.8758 60.9098 94.8758 78.7362C94.8758 78.9301 94.8613 79.1215 94.8468 79.4316C94.4735 79.2388 94.0827 79.0822 93.6796 78.964C92.4518 78.7387 91.2167 78.4092 89.9817 78.4019C80.3483 78.3559 70.7125 78.3704 61.0791 78.4019C60.7497 78.417 60.4209 78.3598 60.1159 78.2342C59.811 78.1086 59.5371 77.9178 59.3137 77.6751C44.858 63.1872 30.3967 48.7057 15.9296 34.2307C14.9004 33.1598 13.864 32.5905 12.3916 33.5039ZM78.44 45.4189V49.4333H82.4479V45.4189H78.44ZM86.7076 45.4043V49.4212H90.6621V45.4043H86.7076Z" fill="white"/>
<path d="M38.6352 62.9787L44.1251 68.4686L39.8073 72.706C40.8244 73.7284 41.7447 74.6611 42.7375 75.652L46.9875 71.3565L52.2619 76.6187C50.901 77.9584 49.4407 79.3878 48.0313 80.7736L51.148 83.8311L55.2793 79.6156L60.7959 85.137L52.1287 93.7837L5.19934 46.8312L13.7938 38.2378L19.2643 43.7132L14.9538 47.8536L17.993 50.7609L22.0686 46.509L27.5876 52.0231C26.2412 53.3362 24.7785 54.7632 23.2916 56.2096L26.2799 59.0248L30.4524 54.8141L35.8261 60.1974L31.5567 64.3742L34.5184 67.2815L38.6352 62.9787Z" fill="white"/>
<path d="M78.6823 17.5841L56.2165 40.0695L50.7629 34.5553C58.2144 27.0958 65.7434 19.5611 73.2021 12.0918L78.6823 17.5841Z" fill="white"/>
<path d="M30.1545 78.3365C30.1303 78.3365 29.8566 78.3632 29.5805 78.3632C24.7501 78.3632 19.9189 78.3632 15.0869 78.3632C13.0648 78.3632 12.3771 77.663 12.3771 75.6182C12.3771 70.5305 12.3771 65.4427 12.3771 60.5488L30.1545 78.3365Z" fill="white"/>
<path d="M81.9152 14.466L76.3744 8.9397C77.7305 7.52967 79.1085 6.00821 80.5881 4.59576C81.3485 3.86894 82.3874 3.96585 83.2083 4.7169C84.177 5.60362 85.1166 6.53634 86.0029 7.51028C86.8893 8.48422 86.8311 9.47755 85.9157 10.4345C84.608 11.8058 83.2495 13.1262 81.9152 14.466Z" fill="white"/>
<path d="M86.6882 82.5713C88.2744 82.5713 89.788 82.4768 91.2894 82.5955C93.3962 82.7603 94.8613 84.57 94.8516 86.7893C94.8516 88.7275 93.234 90.5518 91.2676 90.6923C89.771 90.7989 88.2575 90.7141 86.6907 90.7141L86.6882 82.5713Z" fill="white"/>
<path d="M48.4235 38.6353L52.1117 42.3105L46.5903 44.1591C47.2345 42.1991 47.8399 40.3893 48.4235 38.6353Z" fill="white"/>
<path d="M78.4401 45.4189H82.4479V49.4334H78.4401V45.4189Z" fill="#154A81"/>
<path d="M86.7076 45.4043H90.6622V49.4212H86.7076V45.4043Z" fill="#154A81"/>
</g>
<defs>
<clipPath id="clip0_501_262">
<rect width="99" height="99" fill="white"/>
</clipPath>
</defs>
</svg>
