<svg width="68" height="55" viewBox="0 0 68 55" fill="none" xmlns="http://www.w3.org/2000/svg">
<path d="M3.82782 55C2.47682 50.5285 1.5011 46.2805 0.900657 42.2561C0.300215 38.2317 0 34.3564 0 30.6301C0 21.2398 2.32671 13.7873 6.98013 8.27236C11.6335 2.75745 18.7638 0 28.3709 0V12.2968C20.7152 12.2968 16.8874 16.9919 16.8874 26.3821V30.4065H29.947V55H3.82782ZM41.8808 55C40.5298 50.5285 39.5541 46.2805 38.9536 42.2561C38.3532 38.2317 38.053 34.3564 38.053 30.6301C38.053 21.2398 40.3797 13.7873 45.0331 8.27236C49.8366 2.75745 56.9669 0 66.4239 0V12.2968C58.7682 12.2968 54.9404 16.9919 54.9404 26.3821V30.4065H68V55H41.8808Z" fill="white" fill-opacity="0.3"/>
</svg>
