<svg width="24" height="18" viewBox="0 0 24 18" fill="none" xmlns="http://www.w3.org/2000/svg">
<path d="M24 15.4502C23.8626 15.7948 23.774 16.1757 23.5779 16.4779C23.191 17.0825 22.5969 17.3461 21.9018 17.3793C21.8554 17.3793 21.8084 17.3793 21.7614 17.3793C15.2562 17.3793 8.75049 17.3793 2.24442 17.3793C1.50528 17.3793 0.888259 17.1194 0.430333 16.5058C0.143462 16.119 -0.00761735 15.6436 0.00176125 15.157C-0.000587084 10.8446 -0.000587084 6.53407 0.00176125 2.22531C0.00176125 0.920714 0.931702 0.00423178 2.21859 0.00241816C4.91252 -0.000806053 7.60685 -0.000806053 10.3016 0.00241816C14.1207 0.00241816 17.9397 0.00241816 21.7585 0.00241816C22.675 0.00241816 23.3712 0.393555 23.7845 1.25019C23.8867 1.46238 23.929 1.7048 23.9988 1.93271L24 15.4502ZM2.42583 1.45694C2.48454 1.52525 2.51331 1.56092 2.54325 1.59296C5.17926 4.29324 7.81585 6.99352 10.453 9.6938C11.3753 10.6345 12.6352 10.6242 13.5616 9.67808C16.184 6.99835 18.8035 4.31541 21.4204 1.62923C21.465 1.58329 21.5025 1.53069 21.5618 1.45875L2.42583 1.45694ZM2.56497 15.9133H21.4391L15.5196 9.69501C15.1779 10.0535 14.8638 10.3866 14.5462 10.7161C13.9004 11.3871 13.1225 11.777 12.1978 11.8266C11.1223 11.8871 10.2106 11.4971 9.45323 10.7173C9.13386 10.3884 8.82094 10.0523 8.47984 9.69682L2.56497 15.9133ZM1.42251 2.47559V14.9188L7.36204 8.68845L1.42251 2.47559ZM22.5845 2.48708L16.6703 8.67394L22.5845 14.882V2.48708Z" fill="white"/>
</svg>
