<svg width="96" height="99" viewBox="0 0 96 99" fill="none" xmlns="http://www.w3.org/2000/svg">
<g clip-path="url(#clip0_503_299)">
<path d="M89.5764 45.9975C88.9985 41.3298 88.4524 36.6595 87.893 31.9893C87.0641 25.0821 86.2335 18.174 85.401 11.2651C85.2473 9.98385 85.0917 8.70436 84.9344 7.42659C84.6057 4.75566 82.5485 2.9294 79.7729 2.90616C77.0953 2.88549 74.4151 2.90616 71.7375 2.90616H16.8606C13.3109 2.90616 11.4631 4.42244 11.0283 7.87863C10.1508 14.853 9.34225 21.8274 8.50452 28.8018C7.67209 35.709 6.83879 42.6171 6.00459 49.526C5.181 56.4022 4.36004 63.2793 3.54175 70.1572C3.37473 71.565 3.20507 72.9702 3.01154 74.378C2.61653 77.4157 4.86731 80.0608 8.01411 80.0815C19.0929 80.1151 30.1716 80.0815 41.253 80.0815C41.3829 80.0815 41.5181 80.0505 41.7196 80.0273V76.4109H10.6837C7.96369 76.4109 6.73893 74.9928 7.06236 72.3503C8.09627 63.8777 9.09838 55.3999 10.1217 46.9248C11.0778 39.0033 12.0419 31.0732 13.014 23.1344C13.5636 18.6243 14.1097 14.1151 14.6523 9.60671C14.8882 7.6668 16.0839 6.59997 18.0987 6.59739C26.7977 6.58706 35.4967 6.58706 44.1957 6.59739C44.31 6.59759 44.4242 6.60452 44.5377 6.61807H51.3774C51.6269 6.59866 51.8775 6.59346 52.1276 6.60256H77.5301C80.03 6.60256 81.0983 7.49116 81.3926 9.90894C82.453 18.5727 83.5038 27.239 84.5447 35.9078C85.5734 44.3804 86.6046 52.8539 87.6385 61.3282C88.1104 65.2028 88.5876 69.0775 89.0383 72.9392C89.261 74.8585 87.84 76.3954 85.8252 76.4135C83.2776 76.4393 80.7299 76.4135 78.1849 76.4135H77.0423V80.0557C77.3259 80.0712 77.5725 80.097 77.8376 80.097C81.1461 80.097 84.4519 80.1151 87.7604 80.097C91.1432 80.0738 93.3807 77.4726 92.9698 74.2179C92.1162 67.4088 91.3182 60.5946 90.499 53.7829C90.4752 53.5892 90.4646 53.3981 90.4566 53.2043C90.4566 53.1397 90.4566 53.0829 90.4566 53.0209C90.2392 51.236 89.9476 48.8647 89.6374 46.3307C89.6103 46.2209 89.59 46.1096 89.5764 45.9975Z" fill="white"/>
<path d="M41.2212 9.50331C40.9047 9.52152 40.5872 9.51375 40.2721 9.48007H17.6506C15.0738 30.8139 12.4996 52.1013 9.92017 73.4377H24.1033C24.1033 72.0196 24.1033 70.6118 24.1033 69.2014C24.1457 64.6138 26.02 60.8864 29.7978 58.1509C31.3504 57.0325 33.125 56.2411 35.0086 55.8272C36.8921 55.4133 38.8435 55.3859 40.7386 55.7466C42.6336 56.1074 44.4308 56.8486 46.0159 57.9229C47.6011 58.9972 48.9394 60.3812 49.9458 61.9868C50.1181 62.2451 50.2851 62.5344 50.5051 62.8935C50.696 62.5964 50.8524 62.3769 51.0009 62.1185C54.2935 56.8413 60.6773 54.3356 66.6713 55.9682C69.6123 56.7556 72.2085 58.458 74.0645 60.8163C75.9205 63.1745 76.9345 66.0592 76.952 69.0309C76.968 70.4749 76.952 71.9214 76.952 73.4222H86.077C83.5002 52.0987 80.9313 30.8423 78.3465 9.46973H77.1297C68.8425 9.48264 49.5216 9.50589 41.2212 9.50331ZM72.8482 46.1472C72.8959 47.0384 72.318 47.6273 71.2178 47.7126C69.8643 47.8378 68.4988 47.6948 67.2035 47.2922C65.9082 46.8895 64.7099 46.2356 63.6809 45.3697C63.4158 45.145 63.1507 44.9125 62.8856 44.6852C58.2595 49.0145 51.9659 48.5082 48.0079 44.6542C45.9665 46.6328 43.5011 47.7539 40.5849 47.7539C37.6687 47.7539 35.2483 46.6923 33.1779 44.6542C32.8889 44.9125 32.6238 45.1346 32.3507 45.3594C31.3375 46.216 30.1591 46.8671 28.8846 47.2747C27.61 47.6823 26.2649 47.8382 24.9278 47.7332C23.7454 47.6583 23.1383 47.0952 23.1728 46.1834C23.2073 45.2715 23.8435 44.7756 25.0577 44.8428C26.216 44.9315 27.3797 44.7541 28.4548 44.3247C29.53 43.8954 30.4867 43.2261 31.2479 42.3707C32.4091 41.136 33.8486 41.1437 35.0495 42.3345C38.4694 45.7236 42.7217 45.7339 46.1044 42.3604C47.3106 41.1567 48.7104 41.1489 49.9113 42.3397C53.3258 45.7236 57.6153 45.7288 60.9689 42.3552C62.1592 41.1541 63.6199 41.1179 64.7678 42.3552C66.4698 44.1634 68.535 44.9952 71.0456 44.8453C72.1749 44.7627 72.8005 45.2534 72.8482 46.1472ZM71.4432 34.5465C71.361 35.4222 70.7168 35.8665 69.5742 35.8019C67.3098 35.6694 65.1592 34.7893 63.4768 33.3066L62.9015 32.821C56.9233 36.8971 53.1536 36.8997 47.9734 32.7848C45.9295 34.7273 43.4666 35.851 40.5505 35.8406C37.6343 35.8303 35.2244 34.7712 33.1434 32.7409C31.5527 34.2365 29.766 35.2801 27.6213 35.6495C27.1348 35.7389 26.642 35.7925 26.1473 35.8096C25.2326 35.8329 24.6388 35.3498 24.5566 34.5672C24.4638 33.7225 24.941 33.131 25.8822 32.9605C26.301 32.883 26.7385 32.8856 27.1573 32.8003C28.6565 32.4965 30.017 31.7345 31.0411 30.6253C32.4303 29.1607 33.785 29.1581 35.1874 30.5969C38.2838 33.7664 42.8436 33.7483 45.9612 30.5504C47.2868 29.1995 48.6679 29.1891 49.9802 30.5272C53.1615 33.769 57.6683 33.7793 60.8204 30.5478C62.1459 29.1969 63.543 29.1762 64.8288 30.5478C66.0858 31.9418 67.855 32.7982 69.7545 32.9321C70.9607 33.0147 71.528 33.6295 71.4432 34.5465ZM50.1022 18.6553C53.1032 21.755 57.7372 21.755 60.7435 18.6811C62.2149 17.1777 63.5298 17.1648 64.956 18.6656C65.9786 19.728 67.2939 20.4805 68.7444 20.8328C69.6855 21.0911 70.1203 21.7705 69.9321 22.5454C69.7279 23.3875 69.0254 23.7801 68.018 23.6096C67.8209 23.5908 67.6278 23.5429 67.4454 23.4676C66.1464 22.7856 64.8526 22.1011 63.5695 21.4011C63.3146 21.2266 63.0776 21.0285 62.8617 20.8096C58.62 24.8547 52.3106 24.8934 48.0477 20.8535C43.1087 24.9167 38.1406 24.9477 33.3528 21.0524C31.7251 21.879 30.1716 22.6849 28.6021 23.4572C28.2991 23.5895 27.9717 23.6607 27.6398 23.6665C27.2899 23.7137 26.9349 23.6282 26.6478 23.4278C26.3607 23.2274 26.1635 22.9273 26.0969 22.5893C25.8928 21.8144 26.2215 21.1402 26.9505 20.9516C28.8063 20.4712 30.2776 19.5051 31.6005 18.167C32.592 17.1674 34.0501 17.4102 35.1715 18.5907C36.8867 20.3988 38.9863 21.1738 41.4942 20.9155C43.1855 20.727 44.7473 19.9413 45.8844 18.7069C47.3451 17.1777 48.6654 17.1725 50.1022 18.6475V18.6553Z" fill="white"/>
<path d="M95.9363 74.0007C95.255 68.6976 94.6585 63.3816 94.0275 58.0733C93.8791 56.8308 93.7385 55.5858 93.5848 54.3433C93.5848 54.2916 93.5848 54.2426 93.5848 54.1883C93.1447 50.4351 91.6973 38.7724 91.1724 34.4121C91.1511 34.239 91.1326 34.0737 91.114 33.9239C90.0404 24.9373 88.9932 15.9455 87.8798 6.96145C87.5166 4.0193 85.857 1.91148 83.1079 0.663844C82.4875 0.384868 81.8141 0.219564 81.1673 0H14.8803C14.7759 0.070386 14.6627 0.127643 14.5436 0.170462C10.7711 1.0978 8.5522 3.57758 8.10417 7.34374C7.49973 12.4307 6.88824 17.516 6.26966 22.5996C5.43546 29.5412 4.60128 36.4812 3.76708 43.4194C3.00004 49.791 2.23473 56.1558 1.47123 62.5136C0.994035 66.4813 0.469168 70.4412 0.0556031 74.414C-0.42954 79.0894 3.35349 82.9693 8.37724 82.9796C19.0928 82.9968 29.8084 82.9968 40.5239 82.9796H41.8282V84.1962C41.8282 88.1923 41.8282 92.1884 41.8282 96.1844C41.8282 97.9926 42.8595 98.9742 44.7232 98.9922C45.948 98.9922 47.1701 98.9922 48.3949 98.9922C50.9426 98.9922 51.4702 98.6048 52.1568 96.1999H66.6183C66.6706 96.323 66.7158 96.4489 66.7535 96.577C67.1723 98.3852 67.9597 98.9845 69.8738 98.9897C71.1975 98.9897 72.523 98.9897 73.8503 98.9897C75.995 98.9897 76.9786 98.0184 76.9813 95.8899C76.9813 91.9585 76.9813 88.027 76.9813 84.0955V82.9667H78.161C81.5039 82.9667 84.8443 83.0158 88.182 82.9434C92.983 82.8556 96.5328 78.6658 95.9363 74.0007ZM41.815 73.4608H34.4504C34.4504 71.7405 34.2542 69.9969 34.5034 68.3127C34.7844 66.4296 36.5261 65.3318 38.3951 65.4713C40.2032 65.616 41.5764 66.9643 41.7885 68.8112C41.8159 69.1645 41.8248 69.5188 41.815 69.8729C41.8177 71.0405 41.815 72.1925 41.815 73.4608ZM49.0206 95.5231C49.0206 95.6781 48.9967 95.8331 48.9782 96.063H44.7922V94.9135C44.7922 86.4409 44.7922 77.9701 44.7922 69.5009C44.7922 66.1765 42.9152 63.645 39.8824 62.803C38.9093 62.5352 37.8867 62.4853 36.891 62.657C35.8954 62.8287 34.9524 63.2175 34.1327 63.7943C33.313 64.3712 32.6377 65.1211 32.1574 65.9881C31.6772 66.8551 31.4043 67.8167 31.3592 68.8009C31.3009 70.3121 31.3592 71.8258 31.3592 73.4195H27.2289C26.7411 67.995 27.0221 63.676 32.0008 60.2844C35.4472 57.9364 39.2276 57.7013 42.9868 59.5638C46.746 61.4262 48.941 64.5233 48.9967 68.6614C49.0948 77.6145 49.0179 86.583 49.0206 95.5231ZM67.7794 93.2242C67.4846 93.2556 67.1879 93.2677 66.8913 93.2603H52.0454V89.6233C52.3954 89.6052 52.7427 89.5716 53.0873 89.5716C57.6825 89.5716 62.2723 89.5716 66.8569 89.5716C67.2515 89.5617 67.646 89.599 68.0313 89.6827C68.4503 89.7872 68.8187 90.031 69.0728 90.372C69.3269 90.713 69.4508 91.1298 69.4231 91.5503C69.3935 91.9727 69.2128 92.3715 68.9125 92.6774C68.6121 92.9833 68.2112 93.1768 67.7794 93.2242ZM52.0719 86.6037V83.0442H66.6713V86.6037H52.0719ZM69.4178 78.4282C69.3762 78.8654 69.1728 79.273 68.8455 79.5748C68.5182 79.8767 68.0893 80.0521 67.6389 80.0684C66.8807 80.1072 66.1199 80.0839 65.3617 80.0839H52.056V76.4676C52.3582 76.4469 52.6419 76.4056 52.9256 76.4056C57.6179 76.4056 62.3086 76.4056 66.9974 76.4056C67.3268 76.3969 67.656 76.4264 67.9783 76.4934C68.4162 76.5945 68.8024 76.8455 69.0665 77.2005C69.3307 77.5555 69.4553 77.9912 69.4178 78.4282ZM59.3438 68.5891C59.4922 66.7809 61.2631 65.399 63.1189 65.4636C64.0357 65.4796 64.9126 65.8322 65.5742 66.451C66.2358 67.0697 66.6332 67.909 66.6872 68.8009C66.7641 70.1777 66.7164 71.5623 66.719 72.9339C66.7093 73.107 66.6898 73.2795 66.6607 73.4505H59.3173C59.32 71.7818 59.2165 70.1751 59.3464 68.5891H59.3438ZM73.9988 96.0397H69.5503C69.7619 95.8063 69.9886 95.5863 70.229 95.3811C73.1584 93.2552 73.1452 89.6027 70.2158 87.4509C69.9467 87.2066 69.7756 86.877 69.7332 86.521C69.6564 85.9527 69.7571 85.3612 69.7041 84.7852C69.5822 83.4626 69.8393 82.4604 71.0111 81.471C73.1982 79.6112 72.8138 76.1679 70.4305 74.4967C70.1847 74.3493 69.986 74.138 69.8567 73.8865C69.7275 73.6351 69.6728 73.3534 69.6988 73.0734C69.7306 71.5933 69.7492 70.108 69.6696 68.6304C69.555 66.9745 68.7955 65.4238 67.5464 64.2953C66.2973 63.1668 64.653 62.5459 62.9497 62.5594C61.2464 62.5729 59.6127 63.2199 58.3826 64.368C57.1526 65.5162 56.4192 67.0788 56.3322 68.7364C56.2739 70.2862 56.3322 71.818 56.3322 73.4712H52.0905C51.7989 69.1187 51.8546 64.9159 55.3142 61.5657C58.4954 58.4866 63.1189 57.4947 67.2015 59.2409C71.589 61.1136 73.9219 64.5027 73.9776 69.1574C74.0704 77.0488 74.0041 84.9401 74.0041 92.8315L73.9988 96.0397ZM76.9733 73.435C76.9733 71.9291 76.9733 70.4825 76.9733 69.0437C76.9557 66.072 75.9417 63.1873 74.0857 60.8291C72.2297 58.4709 69.6335 56.7684 66.6925 55.981C60.6985 54.3485 54.3148 56.8541 51.0221 62.1314C50.8737 62.3716 50.7172 62.6041 50.5264 62.9063C50.3063 62.5472 50.1393 62.2708 49.967 61.9996C48.9606 60.394 47.6223 59.01 46.0372 57.9357C44.452 56.8614 42.6548 56.1203 40.7597 55.7595C38.8647 55.3987 36.9134 55.4261 35.0298 55.84C33.1462 56.254 31.3717 57.0453 29.819 58.1637C26.0413 60.8992 24.167 64.6215 24.1245 69.2142C24.1113 70.6246 24.1245 72.0324 24.1245 73.4505H9.9414C12.5209 52.1038 15.095 30.8293 17.6719 9.4929H40.2933C40.6085 9.52659 40.9259 9.53435 41.2424 9.51614C49.5428 9.51614 68.8637 9.49546 77.1642 9.49546H78.381C80.9658 30.868 83.5346 52.1167 86.1115 73.4479L76.9733 73.435ZM87.7631 80.0787C84.4546 80.102 81.1487 80.0787 77.8402 80.0787C77.5751 80.0787 77.3285 80.0529 77.0449 80.0374V76.3953H78.1875C80.7325 76.3953 83.2802 76.4134 85.8279 76.3953C87.8427 76.3772 89.2742 74.8454 89.0409 72.921C88.5902 69.0463 88.113 65.1717 87.6411 61.3099C86.6125 52.8374 85.5813 44.3639 84.5474 35.8896C83.487 27.2224 82.4362 18.5561 81.3952 9.89068C81.101 7.4729 80.0326 6.58433 77.5327 6.58433H75.1626L51.38 6.60239H44.5403C44.4268 6.58884 44.3126 6.58195 44.1983 6.58174C35.5011 6.58174 26.8021 6.58174 18.1013 6.58174C16.0918 6.58174 14.8962 7.65112 14.6549 9.59103C14.107 14.0994 13.5609 18.6087 13.0166 23.1188C12.0534 31.0489 11.0893 38.979 10.1243 46.9091C9.101 55.3843 8.09889 63.862 7.06498 72.3346C6.74155 74.9771 7.96631 76.3927 10.6863 76.3953H41.7355V80.0116C41.5287 80.0349 41.3988 80.0658 41.2689 80.0658C30.1875 80.0658 19.1087 80.0865 8.02993 80.0658C4.89108 80.0658 2.63242 77.4001 3.02743 74.3623C3.21035 72.9545 3.38002 71.5493 3.55764 70.1416C4.37946 63.2653 5.20042 56.3883 6.02048 49.5103C6.85114 42.6014 7.68444 35.6933 8.5204 28.7861C9.35814 21.8117 10.1667 14.8373 11.0442 7.86295C11.4816 4.40676 13.3294 2.89048 16.8765 2.89048H71.7534C74.4309 2.89048 77.1112 2.87498 79.7887 2.89048C82.5591 2.91372 84.6216 4.73998 84.9503 7.41091C85.1076 8.6904 85.2632 9.9699 85.4169 11.2494C86.2494 18.1566 87.08 25.0647 87.9089 31.9736C88.2509 34.8409 88.9958 40.937 89.6507 46.2969C89.9608 48.831 90.2524 51.2048 90.4698 52.9872C90.4698 53.0492 90.4698 53.106 90.4698 53.1706C90.4698 53.3643 90.4884 53.5555 90.5122 53.7492C91.3314 60.5608 92.1294 67.3751 92.983 74.1841C93.3754 77.4543 91.1379 80.0555 87.7551 80.0787H87.7631Z" fill="#154A81"/>
<path d="M64.7572 42.3394C63.596 41.1073 62.1486 41.1434 60.9583 42.3394C57.6047 45.713 53.3153 45.6975 49.9007 42.3239C48.6998 41.1331 47.3 41.1409 46.0938 42.3446C42.711 45.7181 38.4587 45.7026 35.0389 42.3188C33.838 41.128 32.3878 41.1202 31.2372 42.3549C30.476 43.2103 29.5193 43.8796 28.4442 44.3089C27.369 44.7383 26.2054 44.9157 25.0471 44.827C23.8329 44.7598 23.1913 45.2377 23.1621 46.1676C23.133 47.0975 23.7348 47.6451 24.9172 47.7175C26.2543 47.8224 27.5995 47.6666 28.874 47.259C30.1486 46.8513 31.3269 46.2002 32.3401 45.3436C32.6052 45.1188 32.8703 44.8864 33.1672 44.6384C35.2377 46.6739 37.6952 47.7381 40.5743 47.7381C43.4533 47.7381 45.9479 46.6274 47.9972 44.6384C51.9552 48.4924 58.2489 48.9987 62.875 44.6694C63.1401 44.8967 63.4052 45.1292 63.6703 45.3539C64.6993 46.2198 65.8975 46.8737 67.1928 47.2764C68.4881 47.679 69.8537 47.822 71.2072 47.6968C72.3127 47.6115 72.8854 47.0226 72.8376 46.1314C72.7899 45.2403 72.1643 44.7469 71.0243 44.8141C68.5244 44.9794 66.4591 44.1476 64.7572 42.3394Z" fill="#154A81"/>
<path d="M64.8554 30.5299C63.5696 29.1712 62.1698 29.1919 60.8469 30.5299C57.6922 33.7614 53.1828 33.7511 50.0068 30.5093C48.6945 29.1712 47.3081 29.1815 45.9878 30.5325C42.8702 33.7304 38.2997 33.7484 35.2139 30.579C33.8115 29.1402 32.4568 29.1428 31.0677 30.6074C30.0436 31.7166 28.683 32.4785 27.1839 32.7824C26.765 32.8676 26.3276 32.865 25.9087 32.9425C24.957 33.113 24.4798 33.7175 24.5832 34.5492C24.6681 35.3242 25.2619 35.8149 26.1739 35.7917C26.6686 35.7745 27.1613 35.721 27.6478 35.6315C29.7925 35.2622 31.5793 34.2186 33.17 32.723C35.251 34.7481 37.6926 35.8072 40.577 35.8227C43.4613 35.8382 45.9454 34.7094 47.9999 32.7669C53.1801 36.8818 56.9499 36.8792 62.928 32.8031L63.5033 33.2887C65.1857 34.7714 67.3363 35.6515 69.6007 35.7839C70.7433 35.8485 71.3876 35.4042 71.4697 34.5286C71.5546 33.6012 70.9872 32.9968 69.8075 32.9064C67.8999 32.7811 66.1201 31.9271 64.8554 30.5299Z" fill="#154A81"/>
<path d="M35.1716 18.583C34.0502 17.4025 32.5921 17.1597 31.6006 18.1594C30.2751 19.4974 28.8064 20.4635 26.9506 20.944C26.2216 21.1325 25.8902 21.8119 26.097 22.5816C26.1636 22.9196 26.3608 23.2197 26.6479 23.4202C26.935 23.6206 27.29 23.706 27.6399 23.6588C27.9718 23.653 28.2992 23.5818 28.6022 23.4496C30.1717 22.6746 31.7252 21.8713 33.3529 21.0447C38.1407 24.94 43.1088 24.9194 48.0478 20.8458C52.3106 24.8858 58.6069 24.847 62.8618 20.8019C63.0777 21.0208 63.3147 21.2189 63.5696 21.3934C64.8527 22.1012 66.1465 22.7857 67.4455 23.4599C67.6279 23.5352 67.8209 23.5831 68.0181 23.602C69.0255 23.7725 69.728 23.3798 69.9322 22.5377C70.1204 21.7628 69.6856 21.0731 68.7445 20.8251C67.294 20.4728 65.9787 19.7204 64.9561 18.6579C63.5299 17.1571 62.215 17.17 60.7436 18.6734C57.7373 21.7499 53.1033 21.7396 50.1023 18.6476C48.6654 17.1649 47.3452 17.17 45.8845 18.6812C44.7474 19.9156 43.1856 20.7013 41.4943 20.8897C38.9864 21.1739 36.8841 20.3912 35.1716 18.583Z" fill="#154A81"/>
<path d="M39.88 62.803C42.9128 63.6451 44.7844 66.1766 44.7897 69.501C44.7897 77.9719 44.7897 86.4428 44.7897 94.9136V96.0631H48.9758C48.9943 95.8332 49.0182 95.6782 49.0182 95.5232C49.0182 86.5702 49.0924 77.6146 48.9705 68.6589C48.9148 64.526 46.7382 61.4263 42.9605 59.5613C39.1827 57.6963 35.4182 57.9339 31.9745 60.282C27.0064 63.6736 26.7254 67.9951 27.2026 73.417H31.333C31.333 71.8233 31.2853 70.3173 31.333 68.7984C31.3775 67.8118 31.651 66.8479 32.1328 65.979C32.6147 65.1102 33.2923 64.359 34.1149 63.782C34.9375 63.205 35.8836 62.8172 36.8821 62.6476C37.8806 62.4781 38.9056 62.5312 39.88 62.803Z" fill="white"/>
<path d="M56.3138 73.4585C56.3138 71.8053 56.2661 70.2632 56.3138 68.7237C56.4008 67.0661 57.1342 65.5035 58.3643 64.3554C59.5943 63.2072 61.228 62.5602 62.9313 62.5467C64.6346 62.5332 66.2789 63.1542 67.528 64.2826C68.7771 65.4111 69.5366 66.9618 69.6513 68.6178C69.7308 70.0953 69.7122 71.5806 69.6804 73.0607C69.6544 73.3408 69.7091 73.6224 69.8384 73.8738C69.9676 74.1253 70.1663 74.3366 70.4121 74.484C72.7981 76.1682 73.1798 79.6115 70.9927 81.4584C69.8209 82.4555 69.5638 83.45 69.6857 84.7725C69.7388 85.3485 69.638 85.9401 69.7149 86.5083C69.7573 86.8643 69.9283 87.194 70.1974 87.4383C73.1135 89.59 73.1401 93.2425 70.2106 95.3684C69.9703 95.5736 69.7435 95.7937 69.532 96.0271H73.999V92.8008C73.999 84.9094 74.0653 77.018 73.9725 69.1267C73.9168 64.4771 71.5866 61.0829 67.1964 59.2101C63.1138 57.4691 58.4903 58.461 55.3091 61.5349C51.8627 64.893 51.7938 69.0879 52.0854 73.4404L56.3138 73.4585Z" fill="white"/>
<path d="M67.9784 76.4907C67.6562 76.4237 67.3269 76.3942 66.9975 76.4028C62.3087 76.4028 57.6181 76.4028 52.9257 76.4028C52.642 76.4028 52.3584 76.4442 52.0562 76.4648V80.0812H65.3618C66.12 80.0812 66.8809 80.1044 67.6391 80.0657C68.0894 80.0494 68.5183 79.8739 68.8456 79.5721C69.173 79.2703 69.3764 78.8627 69.4179 78.4254C69.4554 77.9884 69.3308 77.5528 69.0667 77.1978C68.8025 76.8427 68.4163 76.5918 67.9784 76.4907Z" fill="white"/>
<path d="M68.0286 89.683C67.6433 89.5993 67.2489 89.5619 66.8542 89.5719C62.259 89.5719 57.6692 89.5719 53.0846 89.5719C52.74 89.5719 52.3927 89.6055 52.0427 89.6236V93.2606H66.8886C67.1852 93.268 67.4819 93.2559 67.7768 93.2244C68.2072 93.1766 68.6069 92.9836 68.9066 92.6789C69.2063 92.3741 69.3871 91.9768 69.4177 91.5557C69.4469 91.1347 69.324 90.717 69.0702 90.3749C68.8165 90.0329 68.448 89.7881 68.0286 89.683Z" fill="white"/>
<path d="M41.8152 69.8859C41.825 69.5318 41.8161 69.1774 41.7887 68.8242C41.5792 66.9773 40.198 65.6289 38.3953 65.4843C36.5396 65.3318 34.7846 66.4297 34.5036 68.3257C34.2544 70.0098 34.4506 71.7535 34.4506 73.4738H41.8152C41.8152 72.1926 41.8179 71.0405 41.8152 69.8859Z" fill="white"/>
<path d="M66.7218 72.9417C66.7218 71.5624 66.7668 70.1778 66.6899 68.8088C66.636 67.9168 66.2385 67.0776 65.577 66.4588C64.9154 65.8401 64.0385 65.4875 63.1216 65.4714C61.2659 65.4068 59.495 66.7785 59.3465 68.597C59.2166 70.183 59.32 71.7897 59.32 73.4558H66.6635C66.6925 73.2856 66.712 73.114 66.7218 72.9417Z" fill="white"/>
</g>
<defs>
<clipPath id="clip0_503_299">
<rect width="96" height="99" fill="white"/>
</clipPath>
</defs>
</svg>
