<svg width="36" height="36" viewBox="0 0 36 36" fill="none" xmlns="http://www.w3.org/2000/svg">
<path d="M19.4445 36C18.4618 36 17.479 36 16.4963 36C15.931 35.9175 15.3628 35.849 14.8003 35.7505C8.01742 34.5705 2.38763 29.4211 0.592462 22.771C0.302315 21.6961 0.131034 20.6024 0 19.5003C0 18.4939 0 17.4874 0 16.481C0.067389 15.9951 0.123547 15.5074 0.204975 15.0243C1.9028 4.96468 11.7135 -1.79521 21.6721 0.422131C28.7377 1.99509 33.278 6.45042 35.3717 13.382C35.6834 14.4137 35.8135 15.4839 35.9408 16.5523C35.9408 17.5353 35.9408 18.5182 35.9408 19.5012C35.8566 20.0903 35.8079 20.6868 35.6816 21.2665C34.1148 28.4869 29.7916 33.1917 22.7457 35.3931C21.6721 35.728 20.5574 35.8659 19.4445 36ZM19.4876 23.8449C19.4876 22.2889 19.4876 20.7328 19.4876 19.1767C19.4876 18.6327 19.4885 18.6317 20.0173 18.6308C20.6959 18.6299 21.3745 18.6271 22.0531 18.6317C22.2674 18.6336 22.4134 18.583 22.4368 18.3335C22.5285 17.3561 22.6212 16.3788 22.7298 15.4042C22.7625 15.1088 22.6717 15.014 22.3741 15.0196C21.5795 15.0365 20.783 15.0262 19.9883 15.0243C19.4979 15.0234 19.4904 15.015 19.4885 14.5413C19.4867 13.9794 19.4857 13.4185 19.4895 12.8567C19.4941 12.1007 19.8264 11.7659 20.5845 11.7602C21.1695 11.7555 21.7545 11.7518 22.3395 11.7612C22.5978 11.7649 22.7288 11.6889 22.726 11.4029C22.7157 10.479 22.7176 9.55414 22.7251 8.63024C22.7269 8.37043 22.6165 8.27851 22.3666 8.28038C21.2556 8.28789 20.1437 8.2635 19.0337 8.29258C17.3106 8.33854 15.9787 9.37123 15.4667 11.0164C15.3338 11.4423 15.2505 11.8775 15.2486 12.3258C15.2468 13.0631 15.2458 13.8003 15.2411 14.5366C15.2383 14.9915 15.2093 15.0196 14.7685 15.0225C14.3473 15.0253 13.9261 15.0309 13.5049 15.0215C13.2494 15.0159 13.1502 15.12 13.153 15.3761C13.1605 16.3469 13.1615 17.3186 13.153 18.2894C13.1512 18.5548 13.2672 18.6392 13.5152 18.6317C13.8662 18.6205 14.2172 18.6289 14.5682 18.6289C15.2421 18.6289 15.2421 18.6289 15.2421 19.2921C15.2421 22.3451 15.2421 25.3991 15.2421 28.4522C15.2421 29.0281 15.243 29.0281 15.8308 29.0291C16.8482 29.0291 17.8665 29.0291 18.8839 29.0291C19.4885 29.0291 19.4885 29.0281 19.4885 28.441C19.4876 26.9102 19.4876 25.3776 19.4876 23.8449Z" fill="#FFFEFE"/>
</svg>
