<svg width="37" height="36" viewBox="0 0 37 36" fill="none" xmlns="http://www.w3.org/2000/svg">
<path d="M17.3589 0C18.3882 0 19.4167 0 20.446 0C21.1596 0.114609 21.8844 0.165234 22.5881 0.336797C29.5903 2.04117 34.1557 6.34289 36.2676 13.249C36.5939 14.3149 36.7328 15.4195 36.864 16.5234C36.864 17.5078 36.864 18.4922 36.864 19.4766C36.777 20.0897 36.7286 20.7113 36.596 21.3145C35.0159 28.4977 30.715 33.1896 23.7107 35.3855C22.6267 35.7251 21.5006 35.8678 20.3759 36C19.3936 36 18.4113 36 17.429 36C16.8404 35.9156 16.244 35.8657 15.6645 35.7405C8.456 34.1838 3.76004 29.8617 1.55344 22.8185C1.22016 21.7547 1.08545 20.6487 0.940918 19.5462C0.940918 18.5147 0.940918 17.4839 0.940918 16.4524C1.02511 15.8857 1.09527 15.3169 1.19491 14.753C2.38345 7.99875 7.54248 2.37023 14.1602 0.590625C15.2119 0.307969 16.2833 0.144844 17.3589 0ZM18.8835 28.324C20.5267 28.253 22.1896 28.3303 23.844 28.1693C25.8885 27.9696 27.4882 27.0534 28.4494 25.1733C28.9006 24.2902 29.0809 23.329 29.1083 22.3545C29.1939 19.2396 29.2865 16.1205 29.0409 13.0106C28.8858 11.0461 27.9906 9.48305 26.219 8.50852C25.2963 8.00086 24.2811 7.80188 23.249 7.77305C20.1289 7.68516 17.0046 7.5818 13.8908 7.84477C11.7873 8.02266 10.1771 9.04148 9.26427 11.0152C8.87487 11.8575 8.71981 12.7638 8.69455 13.6786C8.60965 16.7583 8.54861 19.8394 8.74927 22.9184C8.94012 25.8441 11.078 27.9724 13.9967 28.1798C15.6196 28.2952 17.2445 28.253 18.8835 28.324Z" fill="#FFFEFE"/>
<path d="M19.4391 26.5223C17.4682 26.5258 16.0531 26.5413 14.6407 26.4534C13.5756 26.3873 12.5548 26.1799 11.7255 25.4254C10.7965 24.581 10.532 23.4665 10.4696 22.2839C10.3447 19.9073 10.3875 17.5286 10.4148 15.1507C10.424 14.3343 10.431 13.5117 10.593 12.7017C10.9495 10.9214 12.171 9.79355 13.9826 9.61214C16.0573 9.40472 18.1397 9.4905 20.2193 9.47784C21.4114 9.47081 22.6027 9.48839 23.7906 9.60862C25.7586 9.80691 27.0735 11.1203 27.2741 13.0849C27.4243 14.5558 27.4053 16.0324 27.4081 17.5075C27.4109 19.0889 27.4229 20.6709 27.3401 22.2508C27.3141 22.7423 27.2503 23.2303 27.1141 23.7056C26.677 25.2363 25.4759 26.215 23.8214 26.388C22.1789 26.5589 20.5294 26.5146 19.4391 26.5223ZM24.1456 17.9899C24.1435 15.0747 21.8197 12.7467 18.9101 12.7453C15.9829 12.7432 13.6563 15.0754 13.6584 18.0089C13.6605 20.9226 15.9857 23.2521 18.8939 23.2542C21.8218 23.2563 24.1477 20.9247 24.1456 17.9899ZM25.6078 12.4985C25.6204 11.8713 25.078 11.3046 24.441 11.28C23.7983 11.2553 23.2258 11.8066 23.2103 12.4654C23.1956 13.0996 23.7288 13.6572 24.3736 13.6811C25.0184 13.705 25.5944 13.1524 25.6078 12.4985Z" fill="#FFFEFE"/>
<path d="M22.367 18.0299C22.3621 19.9649 20.8221 21.4787 18.8645 21.4724C16.9393 21.4661 15.4308 19.9164 15.4385 17.9525C15.4455 16.04 16.9884 14.5248 18.9242 14.5283C20.8571 14.5318 22.3719 16.0717 22.367 18.0299Z" fill="#FFFEFE"/>
</svg>
