<svg width="87" height="87" viewBox="0 0 87 87" fill="none" xmlns="http://www.w3.org/2000/svg">
<path d="M53.7542 86.9309C53.736 86.6498 53.7043 86.3688 53.7043 86.0854C53.702 69.1196 53.7043 52.1538 53.6975 35.1857C53.6975 34.1929 53.9536 33.3429 54.7762 32.7309C55.2702 32.3615 55.8322 32.2277 56.4485 32.2323C58.2569 32.2459 60.0675 32.2005 61.8758 32.2527C62.6621 32.2753 62.8865 32.0215 62.8842 31.244C62.8616 21.9123 62.8683 12.5805 62.8706 3.24872C62.8706 2.79766 62.8502 2.34886 62.9839 1.90234C63.3465 0.701015 64.3209 -0.0243104 65.5741 0.000622707C66.7955 0.0255558 67.7789 0.830214 68.0622 2.03833C68.1007 2.2038 68.1347 2.36926 68.1574 2.537C68.3319 3.89925 68.3296 3.89925 69.7527 3.89925C74.473 3.89925 79.1955 3.93325 83.9157 3.87885C85.3592 3.86298 86.3699 4.36618 86.9999 5.65363C86.9999 6.22029 86.9999 6.78468 86.9999 7.35134C85.8396 9.20772 84.1831 10.6334 82.7396 12.2428C81.346 13.7977 81.3369 13.741 82.7895 15.2574C84.2058 16.7375 85.8532 18.0046 86.9999 19.7363C86.9999 20.3029 86.9999 20.8673 86.9999 21.434C86.4288 22.828 85.323 23.3221 83.8931 23.3198C79.0029 23.313 74.1126 23.3289 69.2224 23.3062C68.4837 23.3017 68.1529 23.4808 68.1687 24.299C68.214 26.645 68.205 28.9932 68.1733 31.3392C68.1642 32.0555 68.4338 32.264 69.1182 32.2459C70.6433 32.2073 72.1706 32.2323 73.698 32.2345C75.9731 32.2368 76.8818 33.1412 76.8818 35.4101C76.8818 51.5259 76.8705 67.6418 76.9022 83.7576C76.9045 85.2196 76.4603 86.2849 75.1279 86.9263C68.0033 86.9309 60.8787 86.9309 53.7542 86.9309Z" fill="#154A81"/>
<path d="M28.6506 86.9305C28.6279 86.5656 28.5826 86.2007 28.5826 85.8357C28.5781 75.688 28.5781 65.5402 28.5803 55.3925C28.5803 53.0057 29.4732 52.1036 31.839 52.1013C36.3598 52.099 40.8829 52.099 45.4037 52.1013C47.867 52.1013 48.8255 53.0601 48.8301 55.5534C48.8369 60.0482 48.8323 64.5429 48.8323 69.0377C48.8323 75.0012 48.8346 80.967 48.8369 86.9305C42.1066 86.9305 35.3786 86.9305 28.6506 86.9305Z" fill="#154A81"/>
<path d="M2.69693 86.9308C1.34181 86.3392 0.797952 85.2784 0.80475 83.8278C0.825145 79.0837 0.807016 74.3396 0.816081 69.5955C0.820613 67.347 1.83355 66.3542 4.09964 66.3542C9.54957 66.352 14.9972 66.352 20.4472 66.3542C22.6475 66.3542 23.6174 67.3108 23.6197 69.4845C23.6219 74.9924 23.6219 80.4981 23.6174 86.006C23.6174 86.3143 23.5812 86.6248 23.563 86.9331C16.6061 86.9308 9.65154 86.9308 2.69693 86.9308Z" fill="#154A81"/>
<path d="M41.4879 18.4533C39.9311 21.4543 38.3041 24.1992 36.4708 26.8149C28.1837 38.6559 17.4697 47.5411 4.19952 53.312C3.56955 53.5862 2.93958 53.8174 2.23483 53.6769C1.15844 53.4638 0.297326 52.6229 0.125104 51.6075C-0.0765774 50.422 0.419695 49.3317 1.50288 48.756C2.19857 48.3866 2.95091 48.1191 3.66473 47.7814C17.8867 41.088 28.7571 30.8382 36.2623 17.023C36.4051 16.7578 36.6204 16.5085 36.5818 16.0801C35.3854 16.3226 34.2093 16.5697 33.0309 16.8009C31.5285 17.0956 30.1416 16.2569 29.8289 14.8765C29.4958 13.4009 30.3229 12.0319 31.8775 11.6851C34.9344 11.0006 38.0049 10.3659 41.0755 9.74711C42.1269 9.53404 43.2237 10.0826 43.7563 11.132C45.202 13.9789 46.6206 16.8394 47.9961 19.7226C48.5898 20.9693 48.0324 22.4562 46.8585 23.0863C45.6122 23.755 44.0735 23.3447 43.3212 22.064C42.8226 21.214 42.4351 20.2961 41.9955 19.4121C41.8641 19.1401 41.7145 18.8749 41.4879 18.4533Z" fill="#154A81"/>
</svg>
