<svg width="28" height="39" viewBox="0 0 28 39" fill="none" xmlns="http://www.w3.org/2000/svg">
<path d="M13.7026 38.498C13.3781 38.2323 13.0072 38.0063 12.7376 37.6945C9.50834 33.9538 6.54403 30.0173 4.06984 25.735C2.63263 23.2462 1.37329 20.6718 0.592716 17.8901C-0.576732 13.7152 -0.0355315 9.77393 2.39325 6.18118C4.69998 2.76648 7.9557 0.720479 12.0696 0.148692C16.0926 -0.410849 19.7211 0.612151 22.8624 3.16117C25.6318 5.40875 27.2809 8.33457 27.8439 11.867C28.282 14.6139 27.7549 17.226 26.8012 19.7816C25.5239 23.2067 23.6959 26.3435 21.6693 29.371C19.7202 32.2837 17.5715 35.0475 15.2733 37.6945C15.0027 38.0063 14.6318 38.2323 14.3082 38.4989C14.1057 38.498 13.9042 38.498 13.7026 38.498ZM14.0083 20.9563C17.8828 20.9516 21.0372 17.8063 21.0439 13.9422C21.0505 10.0829 17.9017 6.93383 14.0215 6.91593C10.1451 6.89804 6.95656 10.0772 6.96791 13.9479C6.97832 17.8147 10.1394 20.961 14.0083 20.9563Z" fill="white"/>
</svg>
