<svg width="28" height="26" viewBox="0 0 28 26" fill="none" xmlns="http://www.w3.org/2000/svg">
<path fill-rule="evenodd" clip-rule="evenodd" d="M20.9146 0C22.792 0 24.598 0.742 25.9266 2.0734C27.2566 3.402 28 5.194 28 7.07V18.13C28 22.036 24.822 25.2 20.9146 25.2H7.084C3.1766 25.2 0 22.036 0 18.13V7.07C0 3.164 3.1626 0 7.084 0H20.9146ZM23.1416 9.15622L23.2536 9.04422C23.5882 8.63822 23.5882 8.05022 23.2382 7.64422C23.0436 7.43562 22.7762 7.30822 22.4976 7.28022C22.2036 7.26482 21.9236 7.36422 21.7122 7.56022L15.3996 12.6002C14.5876 13.2736 13.4242 13.2736 12.5996 12.6002L6.29961 7.56022C5.86421 7.23822 5.26221 7.28022 4.89961 7.65822C4.52161 8.03622 4.47961 8.63822 4.80021 9.05822L4.98361 9.24022L11.3536 14.2102C12.1376 14.8262 13.0882 15.1622 14.0836 15.1622C15.0762 15.1622 16.0436 14.8262 16.8262 14.2102L23.1416 9.15622Z" fill="white"/>
</svg>
