<svg width="102" height="100" viewBox="0 0 102 100" fill="none" xmlns="http://www.w3.org/2000/svg">
<path d="M101.545 82.499C101.007 84.2586 100.083 85.745 98.4839 86.7333C96.4833 87.9787 94.3782 87.9947 92.2008 87.2475C86.9621 85.4397 81.7154 83.6479 76.4687 81.8401C76.0349 81.6875 75.6331 81.5187 75.143 81.7517C69.9525 84.2184 64.4568 85.512 58.728 85.8495C58.0933 85.8896 57.7156 86.1709 57.346 86.6369C51.8021 93.603 44.5708 97.5963 35.7486 98.5203C30.6948 99.0506 25.7293 98.3756 21.0129 96.3509C19.8398 95.8527 18.8114 95.7884 17.6062 96.2304C14.2878 97.4436 10.9454 98.5765 7.58684 99.6773C4.5497 100.674 1.56881 99.2996 0.40377 96.4312C-0.142593 95.0894 -0.110454 93.7235 0.355562 92.3656C1.52863 88.9268 2.6776 85.4879 3.89085 82.0651C4.22028 81.1331 4.18814 80.3296 3.82657 79.4056C-0.608608 68.0605 0.869786 57.5029 8.22961 47.7808C9.62766 45.9328 11.2909 44.3179 13.1228 42.8957C13.629 42.502 13.8861 42.0762 13.9102 41.4093C14.3119 30.024 18.6185 20.3422 26.6854 12.3315C33.5792 5.47789 41.8952 1.37213 51.5289 0.311544C65.5495 -1.23916 77.682 2.99515 87.5969 13.1029C94.3862 20.0288 98.3152 28.3769 99.4481 38.0266C100.364 45.8204 99.1669 53.2846 95.9771 60.4356C95.5513 61.3837 95.5191 62.1952 95.8646 63.1593C97.7929 68.6069 99.657 74.0705 101.545 79.5261C101.545 80.5224 101.545 81.5107 101.545 82.499ZM93.4301 43.3376C93.3738 41.0236 93.3096 39.1917 93.0123 37.3517C91.5258 28.1198 87.171 20.4868 79.9638 14.6054C71.7363 7.88831 62.2472 5.20471 51.6655 6.64293C42.0479 7.95259 34.2301 12.5163 28.1638 20.0127C22.8127 26.6253 20.1612 34.2664 20.1371 42.7993C20.113 50.4243 22.1619 57.4627 26.597 63.6334C34.5193 74.641 45.318 80.0484 58.961 79.51C63.8461 79.3172 68.4822 78.0799 72.837 75.8864C74.5082 75.0427 76.0188 75.0026 77.7623 75.6293C83.1617 77.5656 88.6092 79.3895 94.0407 81.2536C94.4023 81.3741 94.804 81.6312 95.1576 81.3018C95.5272 80.9563 95.2459 80.5546 95.1174 80.201C93.2372 74.7053 91.3973 69.2015 89.4288 63.7378C88.8262 62.0505 88.9306 60.6204 89.7261 59.0214C92.2731 53.9435 93.5024 48.5441 93.4301 43.3376ZM14.328 50.4162C14.2075 50.5126 14.095 50.5769 14.0066 50.6733C10.1821 54.9237 8.08499 59.9213 7.69129 65.6099C7.3699 70.1897 8.26175 74.5446 10.3186 78.6503C10.8891 79.7832 10.9293 80.876 10.5034 82.0812C9.28217 85.504 8.1332 88.9428 6.96816 92.3817C6.87978 92.6388 6.59856 92.9683 6.88781 93.1852C7.0244 93.2896 7.38597 93.145 7.62701 93.0647C10.7204 92.0121 13.8459 91.0479 16.8911 89.8588C18.8274 89.1035 20.4906 89.2642 22.3708 90.1079C29.7145 93.4102 37.0503 93.1611 44.2414 89.5776C46.3545 88.525 48.2989 87.1752 49.9059 85.4879C30.7349 81.2134 18.8917 69.5952 14.328 50.4162Z" fill="#1A365D"/>
<path d="M56.7836 45.4993C50.8781 45.4993 44.9725 45.5074 39.059 45.4913C36.994 45.4833 35.596 44.0611 35.7085 42.1569C35.7969 40.6544 36.9539 39.4331 38.4805 39.2724C38.842 39.2322 39.2036 39.2483 39.5652 39.2483C51.0468 39.2483 62.5365 39.2483 74.0181 39.2483C74.3154 39.2483 74.6127 39.2403 74.91 39.2644C76.6053 39.3768 77.8186 40.6303 77.8507 42.2774C77.8829 43.9567 76.766 45.2583 75.0948 45.4672C74.7011 45.5154 74.3074 45.4993 73.9057 45.4993C68.201 45.4993 62.4883 45.4993 56.7836 45.4993Z" fill="#1A365D"/>
<path d="M56.7274 33.0371C50.8862 33.0371 45.0449 33.0371 39.2036 33.0371C37.0664 33.0371 35.7326 31.864 35.7005 29.9919C35.6683 28.1359 37.1146 26.7941 39.2197 26.7941C50.9344 26.7861 62.649 26.7861 74.3557 26.7941C76.1876 26.7941 77.5535 27.8226 77.8026 29.309C78.0677 30.924 77.2723 32.3301 75.8099 32.8764C75.2957 33.0693 74.7735 33.0371 74.2432 33.0371C68.4099 33.0371 62.5687 33.0371 56.7274 33.0371Z" fill="#1A365D"/>
<path d="M49.7854 57.9531C46.2823 57.9531 42.7871 57.9692 39.284 57.9451C37.0825 57.929 35.6683 56.6193 35.7005 54.707C35.7246 53.2608 36.737 52.0234 38.1591 51.7583C38.7698 51.6458 39.4045 51.6056 40.0312 51.6056C46.6358 51.5976 53.2403 51.5976 59.8449 51.6056C60.4395 51.6056 61.034 51.6458 61.6126 51.7663C63.0267 52.0556 64.0069 53.309 64.031 54.7633C64.0551 56.1854 63.0668 57.471 61.6527 57.7844C61.1144 57.9049 60.5439 57.9451 59.9815 57.9451C56.5828 57.9611 53.1841 57.9531 49.7854 57.9531Z" fill="#1A365D"/>
</svg>
