<svg width="103" height="88" viewBox="0 0 103 88" fill="none" xmlns="http://www.w3.org/2000/svg">
<path d="M0.0405273 59.8005C0.762777 56.3318 2.25006 53.2936 4.9478 50.9073C7.58011 48.5789 10.6478 47.2776 14.1433 47.124C16.7504 47.0082 19.3651 47.1089 21.9773 47.0737C22.8254 47.0636 22.9336 47.3858 22.6895 48.1133C21.9672 50.2604 21.7432 52.4805 21.7458 54.741C21.7609 64.4195 21.7508 74.1005 21.7558 83.779C21.7558 84.7481 21.7156 85.7273 22.0352 86.6637C22.2617 87.3232 21.9295 87.5271 21.3532 87.5195C16.768 87.4591 12.1627 87.8493 7.60527 87.3106C4.19283 86.9079 1.83231 84.8312 0.543837 81.6092C0.370195 81.1763 0.209135 80.7358 0.0430425 80.3003C0.040526 73.4662 0.0405273 66.6321 0.0405273 59.8005Z" fill="#154A81"/>
<path d="M51.4687 87.5272C44.9383 87.5272 38.4103 87.5297 31.8799 87.5221C31.2457 87.5221 30.6065 87.4819 29.9799 87.3887C28.6939 87.1949 27.715 86.2258 27.5137 84.9496C27.4206 84.3581 27.3778 83.7514 27.3778 83.1498C27.3702 73.9395 27.3853 64.7292 27.3677 55.5188C27.3577 50.7463 28.7216 46.5527 32.3304 43.2552C35.3804 40.4687 39.042 39.3234 43.0987 39.3058C48.6904 39.2831 54.2822 39.2529 59.874 39.3133C66.3264 39.3813 71.1909 42.1527 74.1252 48.0126C75.2778 50.3108 75.5697 52.8104 75.5747 55.3376C75.5949 64.6814 75.5848 74.0251 75.5773 83.3713C75.5773 83.8723 75.5294 84.3757 75.4539 84.8691C75.2476 86.2132 74.2913 87.1924 72.9575 87.3912C72.3309 87.4844 71.6917 87.5221 71.0575 87.5221C64.5271 87.5322 57.9992 87.5272 51.4687 87.5272Z" fill="#154A81"/>
<path d="M51.4535 0.00011628C61.2806 -0.0351241 69.3788 7.9443 69.4216 17.7059C69.4669 27.7418 61.4366 35.905 51.5013 35.9252C41.659 35.9453 33.5734 27.8602 33.5331 17.9551C33.4928 8.0601 41.5005 0.0353567 51.4535 0.00011628Z" fill="#154A81"/>
<path d="M81.1891 68.8123C81.1891 63.7905 81.1841 58.7663 81.1916 53.7445C81.1942 51.8516 80.8821 50.009 80.2983 48.2193C80.0365 47.4163 80.0944 47.0337 81.0708 47.074C84.1435 47.1948 87.2288 46.8701 90.2965 47.2779C97.2875 48.2093 102.925 54.555 102.972 61.5981C103.01 67.224 103.008 72.8498 102.975 78.4757C102.945 83.3137 99.3863 87.0693 94.552 87.4016C90.2739 87.6936 85.9857 87.4595 81.705 87.5275C81.0205 87.5375 80.6833 87.316 80.9425 86.5684C81.2671 85.632 81.1992 84.6503 81.2017 83.6812C81.2118 78.7249 81.2067 73.7686 81.2067 68.8148C81.2017 68.8123 81.1967 68.8123 81.1891 68.8123Z" fill="#154A81"/>
<path d="M20.1274 43.5648C12.7237 43.5673 6.61102 37.448 6.63115 30.0526C6.65129 22.7176 12.7237 16.5429 20.0972 16.6109C27.8759 16.6839 33.4978 22.7025 33.5909 30.0123C33.6815 37.4128 27.4682 43.5648 20.1274 43.5648Z" fill="#154A81"/>
<path d="M82.762 43.5646C75.4363 43.5369 69.2104 37.2918 69.3639 29.9442C69.5174 22.6696 75.0865 16.6384 82.8299 16.6309C90.6816 16.6233 96.2834 22.8709 96.3161 30.1204C96.3488 37.5108 90.1732 43.5948 82.762 43.5646Z" fill="#154A81"/>
</svg>
