<svg width="24" height="24" viewBox="0 0 24 24" fill="none" xmlns="http://www.w3.org/2000/svg">
<path d="M5.12674 0C5.89583 0.149463 6.44983 0.632105 6.97506 1.16893C7.90547 2.11989 8.86777 3.03722 9.77504 4.01184C10.6267 4.92544 10.6229 6.15851 9.78317 7.08705C9.20167 7.72974 8.57014 8.32884 7.95049 8.93728C7.82543 9.06184 7.79667 9.14591 7.87608 9.31094C8.49573 10.6026 9.393 11.6936 10.3622 12.7305C11.3545 13.7892 12.4456 14.7408 13.6761 15.523C14.0119 15.7366 14.3733 15.9097 14.7178 16.1103C14.8354 16.1788 14.9054 16.1582 14.998 16.0642C15.5201 15.5348 16.0341 14.9962 16.5824 14.4942C16.8776 14.2233 17.2077 13.9555 17.5704 13.7973C18.5051 13.39 19.3605 13.6174 20.0752 14.3074C21.11 15.3082 22.1149 16.3413 23.1441 17.3496C24.207 18.3921 24.3002 19.7728 23.3098 20.8371C22.5807 21.6205 21.8372 22.394 21.0425 23.1126C20.1915 23.8793 19.1304 24.0692 18.0112 23.9795C16.2542 23.8388 14.6459 23.2204 13.0878 22.4469C10.7856 21.3145 8.67575 19.8299 6.835 18.0471C4.06065 15.3461 1.82591 12.2803 0.550974 8.58729C0.194567 7.55475 -0.0267808 6.49729 0.00260713 5.39812C0.029494 4.36495 0.365893 3.45509 1.09559 2.70965C1.72795 2.05906 2.36928 1.4172 3.01956 0.78406C3.43047 0.382743 3.95045 0.110158 4.51522 0H5.12674ZM18.4264 22.7894C19.1617 22.8062 19.8382 22.6207 20.371 22.1044C21.0746 21.4256 21.7587 20.7274 22.4231 20.01C22.9127 19.4801 22.9102 18.889 22.41 18.3746C21.3502 17.2885 20.2709 16.2199 19.1848 15.1593C18.7703 14.7551 18.2469 14.7433 17.7692 15.0796C17.6437 15.1739 17.526 15.278 17.4172 15.391C16.8332 15.9689 16.2535 16.5518 15.6664 17.1285C15.2768 17.5121 14.8648 17.5775 14.3808 17.3303C14.0325 17.1528 13.6818 16.9765 13.3472 16.7748C11.8879 15.8942 10.6054 14.7962 9.4474 13.5563C8.35067 12.3793 7.34897 11.1331 6.68243 9.65159C6.3973 9.01637 6.46483 8.67199 6.96943 8.18623C7.56157 7.61702 8.15746 7.04906 8.72583 6.45681C9.3236 5.83405 9.31109 5.31093 8.73021 4.67073C8.70957 4.64769 8.68831 4.62402 8.66768 4.60222C7.69037 3.63009 6.71744 2.65235 5.73576 1.68894C5.58856 1.53769 5.41587 1.41333 5.22554 1.3215C4.66779 1.0724 4.22134 1.3159 3.83055 1.6989C3.24341 2.27309 2.64627 2.84043 2.0904 3.44264C1.81271 3.73712 1.58712 4.07635 1.42323 4.44591C1.09496 5.22312 1.18563 6.04143 1.3482 6.84293C1.66084 8.37057 2.24985 9.79981 3.01706 11.1475C5.76015 15.9646 9.59997 19.6071 14.7097 21.859C15.8946 22.3846 17.1227 22.744 18.4264 22.7894Z" fill="white"/>
</svg>
