<svg width="92" height="108" viewBox="0 0 92 108" fill="none" xmlns="http://www.w3.org/2000/svg">
<path d="M47.0716 0.00362268C49.2048 0.949143 50.9288 2.48878 52.6672 3.98133C54.5542 5.60067 56.6295 6.17667 59.0633 5.56806C60.7837 5.14058 62.4932 4.66239 64.2642 4.44503C66.1982 4.20593 67.7556 4.73122 68.8385 6.44475C69.8019 7.96628 70.3633 9.66169 70.8885 11.3462C71.7613 14.1611 73.4998 15.947 76.3827 16.639C77.3606 16.8744 78.3131 17.2295 79.2656 17.5664C83.188 18.9539 84.2021 20.7362 83.409 24.8335C83.1446 26.1992 82.8621 27.565 82.5796 28.9271C82.2355 30.5827 82.5253 32.1296 83.4669 33.5171C84.3651 34.8393 85.3575 36.1036 86.2811 37.4114C86.8642 38.2338 87.4292 39.0742 87.9471 39.9401C89.059 41.8021 88.8453 43.6171 87.5813 45.3053C86.5599 46.671 85.4843 48.0005 84.3796 49.2975C82.8186 51.1269 82.2971 53.1665 82.8512 55.5176C83.2243 57.108 83.5756 58.7019 83.7784 60.3321C84.0935 62.8716 83.2206 64.596 80.9027 65.6575C80.1132 66.0197 79.2801 66.2842 78.4544 66.5595C77.3352 66.929 77.299 66.9761 77.8749 67.9688C80.345 72.2145 82.8186 76.4567 85.2887 80.6989C87.1285 83.8578 88.9684 87.0204 90.8083 90.1794C90.964 90.4511 91.1161 90.7264 91.2502 91.009C92.0723 92.7189 91.5182 93.9832 89.6348 94.168C87.0416 94.4216 84.4231 94.4252 81.819 94.5629C80.3667 94.6389 78.8998 94.6498 77.5489 95.3562C76.2885 96.0155 75.2056 96.8343 74.445 98.0624C72.9963 100.403 71.5187 102.725 70.0482 105.047C69.8056 105.427 69.5665 105.819 69.2659 106.155C68.2771 107.278 66.9661 107.257 66.0715 106.058C65.5318 105.337 65.1045 104.529 64.6481 103.746C60.5157 96.6423 56.3868 89.5346 52.258 82.4269C51.4793 81.0829 51.4793 81.0829 50.3276 82.0103C47.1766 84.5461 44.8442 84.557 41.465 82.0501C40.1866 81.101 40.1902 81.1046 39.4042 82.4631C35.0581 89.9693 30.7156 97.4755 26.3658 104.978C24.707 107.84 23.3054 107.865 21.5416 105.076C20.1074 102.808 18.6985 100.529 17.2389 98.2761C15.7431 95.9685 13.5845 94.8346 10.8428 94.7549C8.26774 94.6824 5.69264 94.5846 3.12117 94.494C2.84229 94.4832 2.56705 94.4506 2.29179 94.4107C0.0499037 94.0774 -0.576672 92.8892 0.542461 90.8895C2.19037 87.9406 3.91073 85.0316 5.60572 82.1081C8.29309 77.4674 10.9841 72.8268 13.6642 68.1825C14.3487 66.9942 14.3089 66.929 12.9724 66.4726C12.2481 66.2262 11.5201 65.9835 10.8211 65.672C8.35828 64.5707 7.37678 62.8028 7.80053 60.1256C8.0794 58.3723 8.42348 56.6298 8.79652 54.8981C9.26373 52.7281 8.55748 50.9313 7.18844 49.3011C6.27213 48.207 5.33047 47.1311 4.46486 45.9936C2.41131 43.3019 2.33525 41.4725 4.24393 38.6576C5.20008 37.2484 6.27214 35.9116 7.37316 34.6075C8.97037 32.7201 9.31081 30.6153 8.80376 28.2533C8.38001 26.2862 7.80053 24.3408 7.90556 22.2831C7.978 20.8087 8.59369 19.7038 9.81062 18.8814C11.1362 17.9866 12.6284 17.4541 14.1459 17.1244C17.8546 16.3202 20.0494 14.1176 20.9585 10.4732C21.2192 9.43709 21.6792 8.43723 22.1392 7.46272C23.2909 5.02104 24.9859 4.19144 27.6552 4.6153C29.7522 4.94858 31.7695 5.6695 33.8883 5.8941C34.935 6.00641 35.8694 5.83252 36.7241 5.16232C38.1765 4.02118 39.6469 2.90901 41.1427 1.82945C42.2474 1.03246 43.4896 0.470949 44.7681 0C45.5396 0.00362268 46.3074 0.00362268 47.0716 0.00362268ZM45.6446 73.1202C62.8155 73.2506 77.2556 59.1077 76.9115 41.2189C76.5964 24.7936 63.5073 10.8427 46.0683 10.7449C28.7852 10.6507 14.8014 24.5727 14.624 41.4362C14.4429 58.8215 28.231 73.1419 45.6446 73.1202Z" fill="#154A81"/>
<path d="M45.6446 68.4508C32.1969 68.5269 19.9262 57.7059 19.2381 43.313C18.5029 27.9673 30.2375 16.2407 43.9677 15.4292C59.1901 14.5272 71.8337 26.1017 72.3408 41.1285C72.8514 56.2713 60.675 68.6211 45.6446 68.4508ZM36.2315 49.1238C35.8657 51.2575 35.4782 53.5217 35.0943 55.7823C34.9748 56.4887 34.9024 57.206 35.547 57.7023C36.17 58.1841 36.8183 57.8979 37.4159 57.5972C38.8465 56.8763 40.2952 56.1808 41.6751 55.3765C44.482 53.7355 47.2563 53.6956 50.0921 55.2896C51.5771 56.1264 53.091 56.9198 54.6302 57.6516C56.1369 58.3689 56.912 57.8219 56.8468 56.1808C56.8359 55.9381 56.8178 55.6917 56.778 55.4526C56.5099 53.8405 56.26 52.2248 55.9594 50.6163C55.427 47.7798 56.2419 45.3961 58.2955 43.4072C59.4182 42.3168 60.5482 41.2263 61.6601 40.1251C62.0042 39.7845 62.3555 39.4295 62.6126 39.0274C63.145 38.1905 62.8843 37.466 61.9571 37.1182C61.6348 36.9987 61.2871 36.9226 60.9466 36.8719C59.3313 36.6328 57.7124 36.4082 56.0934 36.18C53.1489 35.7706 51.0048 34.2817 49.7299 31.5502C48.9802 29.9417 48.1617 28.3622 47.3577 26.7791C47.0679 26.2067 46.6768 25.6633 45.9597 25.6742C45.2534 25.685 44.8623 26.214 44.5725 26.7972C43.8119 28.3224 43.0151 29.8366 42.3017 31.3835C40.9399 34.3505 38.6292 35.901 35.413 36.2343C33.8231 36.4009 32.2403 36.6545 30.6649 36.9226C30.0166 37.0313 29.3248 37.2269 29.1002 37.9732C28.8902 38.676 29.3719 39.1506 29.7811 39.6215C29.9876 39.857 30.2194 40.0671 30.4439 40.2881C31.6826 41.5125 32.9321 42.7261 34.1599 43.9578C35.5434 45.349 35.9889 47.1241 36.2315 49.1238Z" fill="#154A81"/>
</svg>
