<svg width="93" height="93" viewBox="0 0 93 93" fill="none" xmlns="http://www.w3.org/2000/svg">
<g clip-path="url(#clip0_501_273)">
<path d="M75.2121 3.33326C72.7023 5.82692 70.2204 8.35003 67.6713 10.7962C66.8009 11.6324 66.6288 12.4489 67.0156 13.5533C67.9566 16.2286 68.8516 18.9219 69.7205 21.6217C70.0172 22.5462 70.5762 23.078 71.4909 23.3725C74.2252 24.2512 76.9546 25.1495 79.6677 26.0952C80.6807 26.447 81.4397 26.2883 82.1971 25.5111C84.4806 23.1713 86.8182 20.8854 89.1214 18.5652C89.346 18.3394 89.4771 18.0203 89.7919 17.8534C90.0491 19.7468 89.8582 21.674 89.2345 23.4805C88.0456 27.1112 85.5433 30.169 82.2163 32.0565C78.8894 33.944 74.9769 34.5255 71.2434 33.6875C70.2729 33.4764 69.5713 33.6875 68.8779 34.3829C57.4029 45.8531 45.9169 57.3107 34.4201 68.7558C33.6758 69.497 33.5578 70.2562 33.7644 71.2183C35.0758 77.5703 32.5709 83.7553 27.2613 87.3715C18.0813 93.6285 5.33257 88.3827 3.19986 77.4639C2.78333 75.3758 2.80185 73.2243 3.25429 71.1436C3.70672 69.0629 4.58338 67.0974 5.82969 65.3694C7.076 63.6415 8.66528 62.1881 10.4986 61.0997C12.332 60.0113 14.3701 59.3112 16.4863 59.0429C18.2239 58.822 20.0419 59.074 21.8058 59.2687C22.7893 59.3767 23.5286 59.2818 24.2647 58.5504C35.7113 47.0966 47.1748 35.6592 58.6553 24.2381C59.4175 23.4789 59.5651 22.7229 59.3651 21.7101C57.9668 14.6742 61.0716 8.12914 67.3828 4.81409C69.7741 3.51782 72.5115 3.00007 75.2121 3.33326ZM18.5616 83.6539C20.0156 83.6539 21.4713 83.6343 22.9254 83.6539C23.7335 83.6686 24.3139 83.3725 24.7286 82.6721C26.1843 80.2319 27.6498 77.7983 29.1252 75.3712C29.5448 74.679 29.553 74.0213 29.1252 73.3275C27.6509 70.8982 26.1865 68.4634 24.7319 66.0232C24.5685 65.7151 24.3203 65.46 24.0165 65.2881C23.7127 65.1162 23.3659 65.0346 23.0172 65.0529C20.0785 65.0616 17.1392 65.0616 14.1995 65.0529C13.8506 65.0342 13.5035 65.115 13.199 65.286C12.8945 65.457 12.645 65.711 12.4799 66.0183C11.0253 68.4607 9.56137 70.896 8.0882 73.3242C7.66526 74.0212 7.66526 74.6692 8.0882 75.363C9.56356 77.7912 11.0274 80.2259 12.4799 82.6672C12.8946 83.3626 13.4749 83.6654 14.2831 83.649C15.7142 83.6359 17.1371 83.6539 18.5616 83.6539ZM30.5055 64.418L64.4764 30.5164L62.6322 28.4973L28.5777 62.466L30.5055 64.418Z" fill="white"/>
<path d="M49.7179 62.8011L47.3606 60.4891L60.5323 47.2861L62.8863 49.6849C61.4601 52.2407 61.5748 54.3548 63.2846 56.0663C65.0419 57.8269 67.1402 57.9562 69.7532 56.5097L87.5739 74.2206L74.3416 87.4366C74.1891 87.2959 73.8711 87.021 73.5744 86.7265C68.1101 81.2723 62.642 75.8219 57.1701 70.3754C56.7012 69.9107 56.5373 69.6129 56.9521 68.9567C58.0996 67.1569 57.7258 64.7139 56.2111 63.1987C55.4735 62.4476 54.5091 61.9591 53.4662 61.8087C52.4233 61.6582 51.3597 61.854 50.4392 62.3659C50.1785 62.5164 49.9277 62.6768 49.7179 62.8011ZM62.7338 64.4963L78.0792 79.81L80.1201 77.9185L64.7288 62.5655L62.7338 64.4963Z" fill="white"/>
<path d="M77.5283 89.2367L89.3918 77.4033C90.5754 79.5403 90.1672 84.0547 87.2919 87.0572C84.9149 89.5444 80.5233 90.5703 77.5283 89.2367Z" fill="white"/>
<path d="M18.5616 83.6539C17.1371 83.6539 15.7142 83.6359 14.2896 83.6539C13.4815 83.6686 12.9012 83.3659 12.4864 82.6721C11.0318 80.2319 9.56795 77.7972 8.09478 75.3679C7.67348 74.6741 7.67348 74.0262 8.09478 73.3291C9.57014 70.9031 11.034 68.4678 12.4864 66.0232C12.6516 65.7159 12.901 65.4619 13.2056 65.2909C13.5101 65.1199 13.8571 65.0391 14.206 65.0578C17.1447 65.0676 20.084 65.0676 23.0238 65.0578C23.3725 65.0395 23.7192 65.1211 24.0231 65.293C24.3269 65.465 24.5751 65.72 24.7384 66.0281C26.1898 68.4705 27.6542 70.9053 29.1317 73.3324C29.553 74.0262 29.5448 74.6839 29.1317 75.3761C27.6575 77.8043 26.192 80.2379 24.7352 82.6771C24.3188 83.3725 23.7385 83.6686 22.932 83.6588C21.4714 83.6343 20.0157 83.6539 18.5616 83.6539ZM18.6649 68.1716C17.6043 68.1716 16.5338 68.1242 15.4847 68.1978C15.2912 68.2198 15.1041 68.2809 14.935 68.3774C14.7659 68.4739 14.6183 68.6037 14.5011 68.759C13.4454 70.4149 12.434 72.0986 11.4668 73.8102C11.387 73.9834 11.3457 74.1718 11.3457 74.3624C11.3457 74.553 11.387 74.7414 11.4668 74.9146C12.434 76.624 13.4454 78.3082 14.5011 79.9674C14.6136 80.1244 14.7578 80.2561 14.9244 80.3542C15.0909 80.4523 15.2762 80.5145 15.4683 80.5368C17.5567 80.5881 19.6474 80.5881 21.7402 80.5368C21.9319 80.5159 22.1171 80.455 22.2838 80.3581C22.4504 80.2611 22.5947 80.1302 22.7074 79.974C23.7614 78.3164 24.7368 76.6082 25.7696 74.9376C26.0237 74.5285 26.0597 74.2323 25.7909 73.8004C24.7494 72.1347 23.7379 70.4504 22.7566 68.7476C22.4877 68.2829 22.1615 68.1471 21.6582 68.1618C20.6648 68.1913 19.6649 68.17 18.6649 68.1716Z" fill="#154A81"/>
<path d="M30.5054 64.4178L28.5776 62.4658L62.6322 28.4971L64.4764 30.5162L30.5054 64.4178Z" fill="#154A81"/>
<path d="M62.7339 64.4966L64.7289 62.5625L80.1201 77.9188L78.0792 79.8103L62.7339 64.4966Z" fill="#154A81"/>
<path d="M18.6649 68.1712C19.6649 68.1712 20.6649 68.1908 21.6648 68.1614C22.1681 68.1467 22.4943 68.2825 22.7631 68.7472C23.7467 70.4489 24.7582 72.1331 25.7975 73.8C26.0663 74.2319 26.0302 74.5281 25.7762 74.9371C24.7434 76.6078 23.768 78.316 22.714 79.9735C22.6013 80.1298 22.457 80.2607 22.2903 80.3577C22.1237 80.4546 21.9385 80.5155 21.7468 80.5364C19.6572 80.5877 17.5666 80.5877 15.4749 80.5364C15.2828 80.5141 15.0975 80.4519 14.931 80.3538C14.7644 80.2557 14.6202 80.124 14.5077 79.967C13.4531 78.31 12.4417 76.6258 11.4734 74.9142C11.3936 74.741 11.3523 74.5526 11.3523 74.362C11.3523 74.1714 11.3936 73.983 11.4734 73.8098C12.4395 72.1004 13.4509 70.4167 14.5077 68.7586C14.6249 68.6033 14.7725 68.4735 14.9416 68.377C15.1107 68.2805 15.2977 68.2194 15.4913 68.1974C16.5404 68.1287 17.6109 68.1712 18.6649 68.1712Z" fill="white"/>
<path d="M70.2922 37.3476C70.4555 37.1562 70.669 37.014 70.9087 36.9369C71.1484 36.8597 71.4049 36.8507 71.6495 36.9107C81.4967 38.6255 91.2275 31.6861 92.8258 21.8326C92.8711 21.6285 92.9291 21.4274 92.9996 21.2304V15.9682C92.8662 15.5759 92.7567 15.176 92.6717 14.7705C92.552 13.9851 92.3438 13.2979 91.475 13.0213C90.6062 12.7448 90.0521 13.2652 89.5079 13.8133C86.6408 16.6784 83.7573 19.5304 80.9049 22.4102C80.4672 22.8503 80.1098 22.9812 79.4951 22.762C77.4444 22.0322 75.3608 21.4006 73.3117 20.6676C72.9184 20.5079 72.6035 20.2007 72.4347 19.8118C71.6757 17.7141 71.0102 15.5804 70.2643 13.4762C70.0823 12.9608 70.1987 12.6581 70.5626 12.303C73.4871 9.40847 76.3903 6.49103 79.3115 3.59485C79.8787 3.03362 80.3279 2.44947 80.0722 1.60516C79.8164 0.76085 79.1312 0.577594 78.3853 0.445057C77.6394 0.312521 76.8559 0.148899 76.0903 0H72.8117C72.3708 0.0752679 71.9282 0.148903 71.4888 0.22908C61.222 2.08623 54.6616 11.0938 56.1222 21.3794C56.2156 22.0339 56.0582 22.4249 55.6107 22.87C44.6931 33.7424 33.7869 44.6278 22.8922 55.5264C22.4348 55.9846 22.0119 56.1449 21.3775 56.032C18.5298 55.523 15.5991 55.7483 12.863 56.6865C1.23557 60.5939 -3.54951 73.8263 2.86338 84.2591C9.13037 94.453 23.9856 95.9224 32.1066 87.1357C36.1502 82.7614 37.7895 77.6164 37.0245 71.7008C36.9655 71.2541 37.0245 70.616 37.3081 70.328C39.7277 67.8278 42.2112 65.3865 44.6849 62.9288C44.8216 62.8162 44.9663 62.7134 45.1176 62.6212C46.1307 63.6619 47.1143 64.6895 48.1175 65.6958C49.324 66.9082 49.9683 66.9082 51.183 65.7416C51.3728 65.547 51.579 65.3691 51.7994 65.2098C52.1272 64.9869 52.5217 64.883 52.917 64.9154C53.3123 64.9479 53.6845 65.1148 53.9714 65.3881C54.2574 65.6631 54.4356 66.0309 54.4741 66.4253C54.5125 66.8198 54.4087 67.215 54.1812 67.5398C53.9463 67.8542 53.6882 68.1506 53.4091 68.4267C52.578 69.3266 52.5387 70.1071 53.4091 70.9678C59.686 77.2346 65.894 83.567 72.2888 89.7177C77.5477 94.7704 86.3096 93.8198 90.6652 87.9783C91.8127 86.4468 92.452 84.7058 93.0143 82.9272V78.0282C92.4406 76.2496 91.8668 74.4677 90.6521 72.9918C90.1603 72.3864 89.6407 71.7875 89.0866 71.2329C83.2267 65.3707 77.3602 59.514 71.4872 53.6627C70.1758 52.3537 69.6102 52.3537 68.2316 53.6431C67.2628 54.5545 66.2644 54.6248 65.5104 53.8493C64.7563 53.0737 64.8678 52.1361 65.7579 51.2034C67.0824 49.8175 67.0693 49.253 65.7022 47.8835C64.7831 46.9639 63.8634 46.0438 62.9432 45.1231C62.8941 45.058 62.8513 44.9884 62.8154 44.9153C62.9514 44.7517 63.0891 44.57 63.2514 44.4064C65.5891 42.0567 67.9562 39.7169 70.2922 37.3476ZM89.3915 77.4097C90.5751 79.5467 90.1669 84.0611 87.2915 87.0637C84.9146 89.5442 80.5229 90.5702 77.528 89.2432L89.3915 77.4097ZM62.8859 49.685C61.4597 52.2408 61.5744 54.3549 63.2842 56.0664C65.0415 57.8286 67.1398 57.9563 69.7528 56.5098L87.5735 74.2207L74.3412 87.4367C74.1887 87.296 73.8707 87.0211 73.574 86.7266C68.1097 81.2724 62.6416 75.822 57.1697 70.3755C56.7008 69.9108 56.5369 69.613 56.9516 68.9568C58.0991 67.157 57.7254 64.714 56.2107 63.1988C55.4731 62.4477 54.5086 61.9592 53.4657 61.8088C52.4228 61.6583 51.3593 61.8541 50.4388 62.366C50.1781 62.51 49.9273 62.6703 49.7175 62.7963L47.3602 60.4826L60.5318 47.2797L62.8859 49.685ZM34.4164 68.7556C33.6721 69.4968 33.5541 70.256 33.7607 71.2181C35.0721 77.5701 32.5673 83.7551 27.2576 87.3713C18.0776 93.6283 5.32887 88.3825 3.19616 77.4637C2.77963 75.3755 2.79816 73.2241 3.25059 71.1434C3.70303 69.0627 4.57968 67.0972 5.826 65.3692C7.07231 63.6413 8.6616 62.1879 10.495 61.0995C12.3283 60.0111 14.3665 59.3109 16.4826 59.0427C18.2202 58.8218 20.0382 59.0738 21.8021 59.2685C22.7856 59.3765 23.525 59.2816 24.261 58.5502C35.7076 47.0964 47.1711 35.659 58.6516 24.2379C59.4139 23.4787 59.5614 22.7227 59.3614 21.7099C57.9631 14.674 61.0679 8.12894 67.3808 4.81388C69.7766 3.5172 72.5191 3.00221 75.2231 3.34125C72.7134 5.8349 70.2315 8.35801 67.6824 10.8042C66.8119 11.6403 66.6398 12.4568 67.0267 13.5613C67.9676 16.2366 68.8627 18.9299 69.7315 21.6297C70.0282 22.5542 70.5872 23.086 71.502 23.3805C74.2363 24.2592 76.9657 25.1575 79.6787 26.1032C80.6918 26.455 81.4508 26.2963 82.2081 25.5191C84.4917 23.1792 86.8293 20.8934 89.1325 18.5732C89.3571 18.3474 89.4882 18.0283 89.8029 17.8614C90.0602 19.7548 89.8693 21.682 89.2456 23.4885C88.0567 27.1192 85.5543 30.177 82.2274 32.0645C78.9005 33.952 74.988 34.5335 71.2544 33.6955C70.284 33.4844 69.5824 33.6955 68.8889 34.3909C57.4063 45.8556 45.9154 57.3105 34.4164 68.7556Z" fill="#154A81"/>
<path d="M39.0856 34.9816C39.0167 34.9161 38.779 34.7034 38.5528 34.4776L38.1643 34.0898C31.9733 27.9146 25.7888 21.7322 19.6109 15.5428C19.1034 14.9991 18.7276 14.3464 18.5126 13.6349C18.065 12.2278 17.7765 10.7699 17.3929 9.3414C17.3224 9.07469 17.1749 8.73763 16.9602 8.61163C14.0094 6.89683 11.0358 5.21148 8.16045 3.57031L3.55078 8.1322C5.19007 11.0087 6.88017 13.972 8.60142 16.9156C8.74076 17.1545 9.11289 17.3149 9.40796 17.3967C10.544 17.7141 11.68 18.0512 12.839 18.2557C14.1898 18.4848 15.1963 19.1508 16.152 20.1145C22.1354 26.1447 28.1461 32.1492 34.1841 38.1281L34.4579 38.4013C34.7073 38.6266 34.9695 38.8375 35.2431 39.033L39.379 34.705L39.0856 34.9816Z" fill="white"/>
<path d="M40.6543 32.195C35.3594 26.9181 30.1629 21.5381 24.7335 16.4018C22.4074 14.2011 20.8107 11.8203 20.4484 8.65581C20.2845 7.27317 19.5386 6.43212 18.3174 5.76126C14.9306 3.90901 11.6127 1.92915 8.26855 0H7.35875C7.05735 0.19352 6.77027 0.408433 6.49975 0.643058C4.54245 2.58039 2.59334 4.52643 0.652421 6.48122C-0.121322 7.26498 -0.1787 7.84585 0.393411 8.84724C2.32285 12.2343 4.23591 15.6312 6.23256 18.9773C6.5473 19.5058 7.21612 19.9591 7.81282 20.1603C9.27343 20.6398 10.8045 20.9065 12.2815 21.3433C12.852 21.5044 13.3757 21.7989 13.8093 22.2024C19.9763 28.3176 26.1258 34.4514 32.2579 40.6037C32.5087 40.8557 32.6464 41.2223 32.7333 41.3646L34.6873 39.6187L35.3004 39.0722L35.2479 39.0329C34.9743 38.8375 34.7122 38.6266 34.4627 38.4013L34.1889 38.1281C28.1695 32.1285 22.1588 26.124 16.1568 20.1145C15.2011 19.1508 14.1896 18.4783 12.8438 18.2557C11.6848 18.0577 10.5488 17.7141 9.41277 17.3967C9.1177 17.3149 8.74558 17.1545 8.60624 16.9156C6.88499 13.9704 5.20144 11.0087 3.5556 8.13219L8.16527 3.57031C11.0406 5.20656 14.011 6.89683 16.965 8.61163C17.1797 8.73762 17.3272 9.07468 17.3977 9.34139C17.7813 10.7698 18.0698 12.2277 18.5174 13.6349C18.7325 14.3464 19.1082 14.9991 19.6157 15.5428C25.7794 21.7464 31.9639 27.9287 38.1691 34.0898L38.5576 34.4776C38.7839 34.7034 39.0216 34.9161 39.0904 34.9816L39.3822 34.705L41.3838 32.7988C41.1641 32.6221 40.8887 32.429 40.6543 32.195Z" fill="#154A81"/>
</g>
<defs>
<clipPath id="clip0_501_273">
<rect width="93" height="93" fill="white"/>
</clipPath>
</defs>
</svg>
