<svg width="84" height="84" viewBox="0 0 84 84" fill="none" xmlns="http://www.w3.org/2000/svg">
<path d="M37.8973 0C40.6328 0 43.3682 0 46.0974 0C49.3638 0.855613 51.5309 2.83539 52.2866 6.18915C52.4615 6.98231 52.4677 7.81918 52.4927 8.63107C52.5052 9.1994 52.705 9.53041 53.2609 9.72401C54.1415 10.0238 55.0033 10.3798 55.8527 10.7482C57.6139 11.5227 57.6139 11.5352 58.9879 10.2361C62.0044 7.40699 66.5947 7.33204 69.6299 10.1362C71.0976 11.4852 72.509 12.9029 73.858 14.3706C75.7566 16.4378 76.275 18.9109 75.6567 21.6152C75.282 23.239 74.3577 24.563 73.1211 25.6497C72.5528 26.1493 72.4591 26.5802 72.8213 27.2672C73.3459 28.2852 73.8081 29.3469 74.1578 30.4336C74.4264 31.2642 74.8511 31.5328 75.7004 31.514C77.905 31.4703 79.9035 32.0824 81.5711 33.6125C82.8451 34.7866 83.5696 36.2543 84.0067 37.8968C84.0067 40.6323 84.0067 43.3677 84.0067 46.097C83.9193 46.3842 83.8319 46.6715 83.7319 46.9526C82.7389 49.8629 80.7279 51.6553 77.7364 52.3048C77.0244 52.461 76.2687 52.4922 75.538 52.4797C74.8323 52.4672 74.4389 52.7045 74.2203 53.404C73.933 54.3096 73.5458 55.1902 73.1586 56.0645C72.4716 57.6134 72.4591 57.6071 73.6582 58.8562C76.6622 62.0039 76.6997 66.6567 73.7082 69.8043C72.4466 71.1346 71.1476 72.4274 69.8235 73.6889C67.7189 75.6937 65.1957 76.287 62.3916 75.65C60.7053 75.2627 59.3751 74.2697 58.2384 73.0019C57.8262 72.5398 57.4453 72.4461 56.8894 72.7521C55.784 73.3517 54.6161 73.8326 53.417 74.2135C52.7238 74.4321 52.4864 74.8193 52.4927 75.5313C52.4989 76.8741 52.3678 78.2043 51.787 79.4534C50.6441 81.9141 48.6893 83.3442 46.1099 84C43.3745 84 40.639 84 37.9098 84C36.2985 83.5691 34.8433 82.8633 33.6817 81.6268C32.0704 79.9093 31.4833 77.8233 31.5208 75.5313C31.5333 74.8818 31.3647 74.4634 30.6777 74.2385C29.7721 73.945 28.8852 73.564 28.0109 73.1831C26.3934 72.4711 26.3996 72.4586 25.0881 73.7014C21.9904 76.6305 17.3626 76.6742 14.2586 73.7576C12.8847 72.4648 11.5544 71.1221 10.2554 69.7543C8.68778 68.1056 8.00703 66.1196 8.12569 63.84C8.2506 61.5355 9.33105 59.7306 10.9986 58.2317C11.4545 57.8195 11.5544 57.4385 11.2546 56.8827C10.6488 55.7523 10.1554 54.5594 9.76198 53.3353C9.56213 52.7108 9.19989 52.486 8.55662 52.486C7.4387 52.486 6.31454 52.4297 5.24034 52.0425C2.40495 51.0245 0.73744 48.9698 0.000488281 46.097C0.000488281 43.3615 0.000488281 40.626 0.000488281 37.8968C0.650005 35.3487 2.05521 33.4126 4.46592 32.2572C5.68376 31.6764 6.98279 31.4953 8.29432 31.5203C9.19365 31.539 9.63082 31.2268 9.86815 30.3649C10.0867 29.578 10.449 28.8348 10.78 28.0854C11.5357 26.3804 11.5419 26.3866 10.2554 25.0251C7.41997 22.0086 7.32629 17.4308 10.118 14.3955C11.4857 12.9091 12.9159 11.479 14.4085 10.1112C16.5007 8.19391 19.0051 7.70052 21.7343 8.36877C23.3831 8.76847 24.6884 9.76148 25.7938 11.0106C26.2122 11.4852 26.587 11.5102 27.1428 11.2416C28.2232 10.7233 29.3224 10.2174 30.4591 9.83643C31.2335 9.57413 31.5395 9.19941 31.527 8.37502C31.5083 7.0635 31.6582 5.76446 32.2328 4.54037C33.3694 2.08595 35.3242 0.655762 37.8973 0ZM70.8166 19.6978C70.7916 18.8735 70.4855 18.1865 69.9235 17.6181C68.7493 16.4378 67.5877 15.2387 66.3824 14.0833C65.0833 12.8467 63.5969 12.8779 62.3104 14.127C61.5235 14.8889 60.774 15.6821 59.9809 16.4378C58.9941 17.3808 57.9324 17.5744 56.7583 16.9187C54.385 15.5822 51.8994 14.5517 49.2763 13.821C48.0335 13.4712 47.3902 12.5532 47.3652 11.2666C47.3465 10.1487 47.3715 9.02454 47.3528 7.90662C47.3278 6.20788 46.2536 5.05874 44.5486 4.99628C42.8561 4.94007 41.1574 4.94007 39.4649 4.99628C37.7287 5.05249 36.667 6.21413 36.6482 7.97532C36.6357 9.06826 36.6607 10.1612 36.642 11.2541C36.617 12.5532 35.9737 13.465 34.7371 13.8147C32.1203 14.5579 29.6284 15.5759 27.2552 16.9124C26.0811 17.5744 25.0131 17.3871 24.0326 16.444C23.2457 15.6883 22.49 14.8952 21.7031 14.1332C20.4103 12.8779 18.9239 12.8404 17.6311 14.0708C16.4258 15.2199 15.2454 16.4003 14.09 17.6057C12.8534 18.9047 12.8847 20.3911 14.1337 21.6776C14.8957 22.4645 15.6888 23.214 16.4445 24.0071C17.3938 24.9939 17.5874 26.0556 16.9254 27.2297C15.5951 29.603 14.5584 32.0886 13.8277 34.7117C13.478 35.9545 12.5599 36.604 11.2734 36.629C10.1554 36.6477 9.03127 36.6228 7.91335 36.6415C6.21462 36.6665 5.05923 37.7344 5.00302 39.4394C4.94681 41.1319 4.94681 42.8306 5.00302 44.5231C5.05923 46.2593 6.22711 47.3273 7.98205 47.346C9.07499 47.3585 10.1679 47.3398 11.2609 47.3523C12.5536 47.371 13.478 48.0143 13.8277 49.2509C14.5647 51.8677 15.5889 54.3596 16.9254 56.7328C17.5874 57.9132 17.4 58.9749 16.4632 59.9554C15.7076 60.7485 14.9144 61.498 14.1525 62.2849C12.8971 63.5777 12.8534 65.0578 14.0838 66.3569C15.2329 67.5622 16.4133 68.7426 17.6186 69.898C18.9177 71.1346 20.4041 71.1096 21.6906 69.8605C22.4775 69.0986 23.2332 68.3054 24.0201 67.5497C25.0006 66.6067 26.0748 66.4131 27.2427 67.0689C29.616 68.3991 32.1079 69.4296 34.7247 70.1665C35.9675 70.5163 36.617 71.4343 36.642 72.7209C36.6607 73.8388 36.6357 74.963 36.6545 76.0809C36.6795 77.7796 37.7474 78.935 39.4586 78.9912C41.1511 79.0474 42.8499 79.0474 44.5424 78.9912C46.2786 78.935 47.3403 77.7672 47.359 76.0122C47.3715 74.9443 47.3528 73.8763 47.3652 72.8146C47.384 71.4219 48.0148 70.5225 49.345 70.1478C51.9119 69.4233 54.3538 68.4303 56.6771 67.1126C57.9324 66.4006 58.9879 66.588 60.0371 67.5935C60.824 68.3554 61.5734 69.1486 62.3666 69.9043C63.5969 71.0846 65.0771 71.1346 66.3199 69.9667C67.5752 68.7863 68.7931 67.5685 69.9734 66.3132C71.1476 65.0703 71.1101 63.5964 69.936 62.3599C69.1803 61.5667 68.3871 60.8173 67.6252 60.0303C66.6072 58.9811 66.4136 57.9257 67.1256 56.6766C68.4558 54.3283 69.4551 51.8614 70.192 49.2696C70.5418 48.033 71.4536 47.3773 72.7401 47.3523C73.8331 47.3335 74.926 47.3523 76.0189 47.3398C77.7801 47.321 78.948 46.2718 79.0105 44.5356C79.0667 42.8431 79.0667 41.1444 79.0105 39.4519C78.9543 37.7094 77.7926 36.654 76.0314 36.6352C74.9635 36.6228 73.8955 36.6415 72.8338 36.629C71.4411 36.6103 70.548 35.9732 70.167 34.643C69.4363 32.0824 68.4433 29.6342 67.1256 27.3172C66.4136 26.0619 66.6009 25.0064 67.6127 23.9634C68.3746 23.1765 69.1553 22.4083 69.9297 21.6401C70.4668 21.0968 70.7603 20.441 70.8166 19.6978Z" fill="#1A365D"/>
<path d="M23.6018 42.0066C23.5956 31.9391 31.9206 23.6078 41.9944 23.6016C52.0681 23.5953 60.3932 31.9204 60.3994 41.9941C60.4057 52.0616 52.0744 60.3992 42.0069 60.4054C31.9394 60.4054 23.6018 52.0741 23.6018 42.0066ZM55.2408 42.0441C55.247 34.6996 49.3576 28.7665 42.0443 28.7602C34.6998 28.754 28.7667 34.6434 28.7605 41.9567C28.7542 49.3012 34.6436 55.2343 41.9569 55.2405C49.3014 55.2468 55.2345 49.3574 55.2408 42.0441Z" fill="#1A365D"/>
</svg>
