<svg width="79" height="92" viewBox="0 0 79 92" fill="none" xmlns="http://www.w3.org/2000/svg">
<g clip-path="url(#clip0_506_315)">
<path d="M75.1245 19.6604C75.1245 19.514 75.1041 19.3653 75.0905 19.1625C74.7279 19.0408 74.3607 18.9146 73.9913 18.7975C71.4145 17.9706 68.8174 17.2023 66.2632 16.3191C57.2806 13.1859 48.6063 9.2392 40.3498 4.52874C39.7084 4.16374 39.2485 4.17274 38.632 4.5445C37.347 5.31955 36.0188 6.0293 34.693 6.73677C25.1976 11.8204 15.1813 15.8773 4.81588 18.838C4.06346 19.0634 3.85955 19.381 3.86409 20.1336C3.89582 25.7663 3.86405 31.399 3.88445 37.0317C3.90711 43.7323 4.88617 50.2753 7.2273 56.5884C9.95972 63.9854 14.3314 70.6763 20.0185 76.1654C24.8186 80.8315 30.217 84.664 36.4268 87.2776C38.3509 88.0865 40.232 88.3478 42.181 87.4308C43.0241 87.0342 43.9012 86.7121 44.7397 86.3043C50.7265 83.3643 56.1156 79.3503 60.6359 74.4643C69.6264 64.873 74.4401 53.4927 74.9681 40.4203C75.2469 33.5146 75.0882 26.5841 75.1245 19.6604ZM63.5662 64.0934C63.5718 64.0071 63.5718 63.9206 63.5662 63.8343C63.5703 63.9207 63.5689 64.0072 63.5617 64.0934H63.5662Z" fill="white"/>
<path d="M38.7476 92C24.975 88.5933 9.33506 74.1083 3.65562 58.2984C1.81988 53.193 0.403409 47.9748 0.242499 42.5584C-0.00226518 34.3234 0.0476252 26.0816 -0.0090332 17.8399C-0.0090332 16.6322 0.471399 16.069 1.77228 15.7017C7.85825 14.0061 13.8369 11.9506 19.6763 9.5463C25.9307 6.95302 31.997 3.93269 37.8319 0.506943C38.981 -0.168981 39.9442 -0.168981 41.0978 0.506943C52.311 7.02834 64.3172 12.0968 76.8242 15.589C78.6169 16.0892 78.957 16.5556 78.9547 18.3851C78.9434 25.399 79.068 32.4151 78.8844 39.4244C78.5059 53.8666 73.4067 66.4613 63.4869 77.0733C58.5758 82.3275 52.9439 86.6512 46.4327 89.7537C44.4474 90.7 42.2763 91.2655 40.1912 92.0068L38.7476 92ZM75.0678 19.1737C74.703 19.052 74.3382 18.9259 73.9688 18.8087C71.3919 17.9818 68.7946 17.2135 66.2382 16.3303C57.2583 13.193 48.5872 9.24252 40.334 4.52868C39.6949 4.16369 39.2349 4.17269 38.6184 4.54444C37.3334 5.3195 36.0053 6.02925 34.6772 6.73671C25.1822 11.8211 15.1658 15.8781 4.80007 18.838C4.04765 19.0633 3.84363 19.381 3.84817 20.1335C3.88216 25.7662 3.84819 31.3989 3.87085 37.0316C3.89352 43.7323 4.87031 50.2752 7.2137 56.5884C9.94543 63.9857 14.3172 70.6768 20.0049 76.1653C24.8027 80.8315 30.1899 84.664 36.4133 87.2775C38.3374 88.0864 40.2184 88.3477 42.1674 87.4307C43.0105 87.0342 43.8876 86.712 44.7239 86.3042C50.711 83.3636 56.1007 79.3498 60.6223 74.4643C69.6105 64.8729 74.4265 53.4926 74.9523 40.4203C75.2311 33.5078 75.0724 26.5773 75.1087 19.6536C75.1019 19.5139 75.0814 19.3652 75.0678 19.1737Z" fill="#154A81"/>
<path d="M24.6123 51.2868C23.3114 49.8877 21.6184 49.6015 20.4717 50.7844C18.9351 52.3615 17.2308 53.5129 15.0755 54.0806C14.2324 54.306 13.8494 55.1058 14.0874 56.016C14.3254 56.9263 14.9576 57.3431 15.8778 57.2935C16.2619 57.2855 16.6404 57.2005 16.9906 57.0434C18.8037 56.1422 20.6167 55.1779 22.5023 54.1978C28.0571 58.8098 33.8181 58.7715 39.5474 53.9725C44.4925 58.7535 51.7856 58.7039 56.7285 53.9207C56.9797 54.1798 57.2552 54.4144 57.5513 54.6214C59.0403 55.4573 60.5405 56.2706 62.0477 57.075C62.2591 57.1644 62.4831 57.2214 62.7117 57.244C63.8789 57.4467 64.6947 56.9826 64.9327 55.9845C65.1593 55.0675 64.6449 54.2519 63.5525 53.9567C61.8703 53.5397 60.3446 52.6495 59.1581 51.3927C57.5059 49.615 55.9851 49.6308 54.2741 51.4107C50.7862 55.0517 45.4104 55.0382 41.9316 51.3814C40.2613 49.6263 38.7338 49.6308 37.0386 51.4197C35.6471 52.8888 33.9723 53.8058 31.9462 54.0333C29.0385 54.351 26.5998 53.4205 24.6123 51.2868Z" fill="#154A81"/>
<path d="M24.6123 38.5906C23.3114 37.1914 21.6184 36.9053 20.4717 38.0904C18.9351 39.6676 17.2308 40.8166 15.0755 41.3844C14.2324 41.6097 13.8494 42.4096 14.0874 43.3221C14.3254 44.2346 14.9576 44.6469 15.8778 44.5973C16.2616 44.589 16.6399 44.5047 16.9906 44.3495C18.8037 43.4347 20.6167 42.4817 22.5023 41.5016C28.0571 46.1136 33.8181 46.0753 39.5474 41.2763C44.4925 46.0573 51.7856 46.0077 56.7285 41.2244C56.9797 41.4835 57.2552 41.7182 57.5513 41.9251C59.0403 42.761 60.5405 43.5744 62.0477 44.3788C62.2588 44.4692 62.4829 44.5262 62.7117 44.5477C63.8789 44.7505 64.6947 44.2864 64.9327 43.2883C65.1593 42.3713 64.6449 41.5557 63.5525 41.2605C61.8703 40.8435 60.3446 39.9533 59.1581 38.6965C57.5059 36.9211 55.9851 36.9346 54.2741 38.7145C50.7862 42.3555 45.4104 42.342 41.9316 38.6852C40.2613 36.9301 38.7338 36.9368 37.0386 38.7235C35.6471 40.1925 33.9723 41.1118 31.9462 41.3394C29.0385 41.657 26.5998 40.731 24.6123 38.5906Z" fill="#154A81"/>
<path d="M56.663 67.3153L56.6495 67.2793C56.5529 67.0301 56.3842 66.815 56.1648 66.661C55.9454 66.5071 55.685 66.4211 55.4165 66.4141C53.2476 66.3735 51.829 65.6075 50.1247 63.8163C48.4566 62.0611 46.9269 62.0657 45.2339 63.8546C43.8424 65.3236 42.1653 66.2406 40.1392 66.4682C37.2315 66.7949 34.7951 65.8711 32.8052 63.7307C31.5044 62.3315 29.8137 62.0454 28.6646 63.2282C27.128 64.8054 25.4239 65.9545 23.2686 66.5222C22.4255 66.7475 22.0447 67.5496 22.2804 68.4599C22.5161 69.3701 23.1507 69.787 24.0709 69.7374C24.4557 69.7294 24.8349 69.6443 25.1859 69.4873C26.999 68.5725 28.812 67.6217 30.6954 66.6417C36.2502 71.2537 42.0111 71.2154 47.7427 66.4163C50.009 68.6131 52.0488 69.6405 54.8568 69.796C55.1627 69.8121 55.4678 69.7519 55.7443 69.6206C56.0207 69.4894 56.2597 69.2913 56.4393 69.0446C56.619 68.7979 56.7336 68.5104 56.7726 68.2083C56.8117 67.9062 56.774 67.5992 56.663 67.3153Z" fill="#154A81"/>
</g>
<defs>
<clipPath id="clip0_506_315">
<rect width="79" height="92" fill="white"/>
</clipPath>
</defs>
</svg>
