<svg width="37" height="36" viewBox="0 0 37 36" fill="none" xmlns="http://www.w3.org/2000/svg">
<path d="M17.2816 0C18.3106 0 19.3396 0 20.3686 0C21.0702 0.114372 21.7831 0.163121 22.4762 0.330929C29.4979 2.02401 34.0723 6.32984 36.1893 13.2484C36.5158 14.3143 36.6543 15.4187 36.7862 16.523C36.7862 17.5074 36.7862 18.4917 36.7862 19.4761C36.6992 20.0892 36.6515 20.7107 36.5186 21.3144C34.9386 28.4974 30.6373 33.1894 23.6334 35.385C22.5492 35.7253 21.4238 35.8669 20.2985 36C19.3162 36 18.334 36 17.3517 36C16.7633 35.9156 16.1674 35.8659 15.5874 35.7413C8.37867 34.185 3.6826 29.8623 1.47675 22.82C1.14372 21.756 1.00901 20.6498 0.864014 19.5482C0.864014 18.517 0.864014 17.4858 0.864014 16.4546C0.948206 15.8883 1.01836 15.3193 1.11752 14.7559C2.30651 8.00135 7.46471 2.37369 14.0832 0.593422C15.1347 0.30843 16.2058 0.145309 17.2816 0ZM19.3368 15.054C19.3358 15.054 19.3358 15.054 19.3349 15.054C19.3349 17.2683 19.334 19.4826 19.3358 21.6969C19.3358 21.9557 19.3256 22.2116 19.2713 22.4657C19.0084 23.6994 18.2816 24.529 17.072 24.8675C15.8465 25.2106 14.7651 24.8806 13.9298 23.9244C13.1 22.9757 12.9503 21.8666 13.4265 20.706C13.9597 19.4076 15.304 18.6811 16.6941 18.877C16.8774 18.9033 17.145 19.0317 17.145 18.6548C17.145 17.753 17.145 16.8502 17.144 15.9483C17.144 15.729 17.0309 15.6371 16.8166 15.6296C16.3489 15.6118 15.8793 15.5893 15.4153 15.6474C11.9026 16.0861 9.44884 19.2886 9.92687 22.8003C10.4049 26.3149 13.8287 28.7683 17.3199 28.1486C20.32 27.6171 22.6802 24.9706 22.6119 21.7785C22.5623 19.4714 22.596 17.1624 22.596 14.8543C22.596 14.7324 22.537 14.5674 22.6727 14.5009C22.8055 14.4362 22.9009 14.5824 23.0029 14.6518C24.3294 15.5527 25.785 16.0693 27.3912 16.1518C27.6756 16.1658 27.7925 16.0665 27.7888 15.7712C27.7766 14.9396 27.7794 14.1071 27.7879 13.2756C27.7907 13.0178 27.7158 12.8922 27.4324 12.8847C26.9384 12.8715 26.4567 12.7609 26.0002 12.5744C24.0029 11.7588 22.8757 10.2663 22.6147 8.1251C22.5801 7.83823 22.4688 7.74917 22.1928 7.75386C21.3976 7.76698 20.6025 7.75761 19.8083 7.75855C19.349 7.75949 19.3377 7.7698 19.3368 8.23479C19.3368 10.5082 19.3368 12.7806 19.3368 15.054Z" fill="#FFFEFE"/>
</svg>
