<svg width="80" height="95" viewBox="0 0 80 95" fill="none" xmlns="http://www.w3.org/2000/svg">
<path d="M38.6624 0C39.3971 0 40.1317 0 40.8663 0C41.7165 0.440332 42.4291 1.0568 43.128 1.70628C48.0034 6.24445 53.608 9.51392 60.005 11.4156C64.974 12.8935 70.0613 13.4576 75.223 13.5292C77.8891 13.565 79.2235 14.8612 79.2813 17.5362C79.3088 18.7912 79.2923 20.0461 79.3088 21.3038C79.3968 29.0454 79.694 36.7897 78.9676 44.5203C78.3926 50.6354 77.347 56.6459 75.256 62.4418C72.257 70.753 67.4118 77.7681 60.5553 83.374C54.7443 88.1241 48.141 91.4018 41.1112 93.8952C40.1427 94.2392 39.2017 94.1732 38.2387 93.8319C32.9423 91.9467 27.866 89.6102 23.1693 86.4921C14.8189 80.9467 8.70252 73.5767 4.94687 64.2554C1.80477 56.456 0.690456 48.2686 0.230973 39.9518C-0.181736 32.4524 0.288763 24.953 0.258497 17.4536C0.258497 17.2115 0.299759 16.9665 0.335528 16.7243C0.63543 14.6906 1.88456 13.5705 3.93985 13.5457C6.66373 13.5127 9.37936 13.3476 12.0812 12.9953C20.6738 11.8752 28.3502 8.66077 34.9701 3.00526C36.1724 1.97048 37.2014 0.715539 38.6624 0ZM34.7555 57.6807C35.7047 57.7302 36.5053 57.3202 37.1987 56.6707C43.8461 50.429 50.4879 44.179 57.1436 37.9483C57.6361 37.486 57.5563 37.1833 57.1408 36.7484C56.0815 35.6448 55.014 34.544 54.029 33.3744C53.4457 32.6836 53.0797 32.7221 52.4442 33.3304C46.9221 38.6226 41.3588 43.8735 35.8313 49.163C35.2287 49.741 34.8738 49.774 34.3042 49.1273C32.0398 46.5541 29.7232 44.0304 27.4368 41.4765C27.0626 41.0609 26.7517 40.8215 26.2316 41.3004C24.9935 42.4397 23.7306 43.5543 22.4622 44.6606C22.0385 45.0322 22.066 45.3211 22.432 45.7257C25.7446 49.3722 29.0408 53.0352 32.3452 56.6872C32.9808 57.389 33.776 57.722 34.7555 57.6807Z" fill="#154A81"/>
</svg>
