<svg width="151" height="88" viewBox="0 0 151 88" fill="none" xmlns="http://www.w3.org/2000/svg">
<path d="M150.885 72.5871C150.839 72.4486 150.8 72.3101 150.77 72.1716C148.751 61.2309 142.616 53.4139 132.543 48.9437C132.405 48.8822 132.305 48.8283 132.229 48.7899C132.328 48.6975 132.459 48.5821 132.559 48.4975C136.651 44.9814 138.831 40.5497 139.023 35.3178C139.2 30.4322 137.495 25.8082 134.225 22.3074C130.877 18.7298 126.256 16.6832 121.212 16.5447C116.482 16.4062 111.976 18.2066 108.467 21.5919C104.989 24.9464 102.978 29.5628 102.939 34.2638C102.893 39.9573 105.027 44.7044 109.281 48.3744C109.511 48.5744 109.626 48.6975 109.68 48.7745C109.603 48.8283 109.45 48.913 109.158 49.0284C106.839 49.9824 104.889 51.098 103.2 52.4445C102.663 52.8753 102.456 52.8676 101.918 52.4137C98.302 49.39 94.0641 46.9972 89.3194 45.3122C89.2043 45.2737 89.0814 45.243 88.9586 45.2122C95.0545 41.1113 98.9086 34.9716 99.8529 27.8394C100.828 20.4455 98.4633 13.044 93.3578 7.51975C89.043 2.85725 82.7322 0.118215 76.0374 0.00280633C69.2506 -0.0972144 62.7094 2.48024 58.126 7.11967C52.9207 12.3823 50.3257 19.9916 51.1779 27.47C51.9994 34.71 55.8611 40.9729 62.0722 45.2122C57.174 46.8895 52.7518 49.3823 48.9054 52.6291C48.629 52.8599 48.5368 52.8753 48.0762 52.5368C46.0877 51.0519 43.9534 49.8439 41.7346 48.936C41.5734 48.8745 41.4736 48.8206 41.4045 48.7745C41.4736 48.7052 41.5811 48.5975 41.7653 48.4359C46.057 44.7121 48.2067 39.9188 48.153 34.1945C48.0992 28.8703 45.6271 23.8539 41.3584 20.4301C37.1435 17.0525 31.8077 15.7445 26.7175 16.8371C19.5084 18.3835 14.6793 22.8614 12.7523 29.7782C10.8099 36.7412 12.6294 42.9271 18.2186 48.2282C18.4336 48.4282 18.6486 48.636 18.7944 48.7899C18.6025 48.8899 18.3107 49.013 18.0113 49.1438C7.30129 53.814 -0.276339 65.3241 0.00772618 76.5033C0.0537908 78.4422 1.09025 79.6732 2.77928 79.7963C4.58348 79.9271 5.82723 78.7807 6.03452 76.8111C6.08827 76.334 6.11897 75.857 6.15735 75.38C6.2111 74.6568 6.26484 73.9105 6.38001 73.1949C7.7082 64.9932 12.7293 58.3457 20.1533 54.945C27.5621 51.552 35.846 52.0982 42.8939 56.4607C43.416 56.7838 43.9534 57.1147 44.0225 57.1993C43.9995 57.3532 43.6156 57.8225 43.2471 58.2841L43.1933 58.3534C37.1205 65.8473 33.919 74.5337 33.681 84.1741C33.6273 86.4823 34.7251 87.9057 36.6291 87.9826C36.6752 87.9826 36.7213 87.9826 36.775 87.9826C37.5427 87.9826 38.2337 87.7133 38.7711 87.2132C39.4851 86.5439 39.869 85.5129 39.892 84.2434C39.9227 82.6738 40.0609 81.135 40.3143 79.6732C43.5619 60.5846 61.1202 47.6127 80.3061 50.1517C95.5996 52.1675 107.784 63.716 110.624 78.873C110.939 80.5426 111.07 82.2737 111.192 83.9433L111.277 85.0666C111.407 86.6747 112.413 87.7595 113.979 87.9672C115.323 88.1519 116.421 87.5518 117.081 86.2823C117.473 85.5359 117.45 84.7281 117.434 84.1357C117.142 74.3105 113.857 65.5549 107.669 58.1072C107.338 57.7071 107.177 57.4301 107.193 57.2916C107.2 57.2301 107.277 57.0377 107.791 56.6915C117.511 50.1363 131.576 52.1059 139.138 61.0693C142.831 65.4395 144.758 70.5098 145.042 76.5572C145.081 77.3573 145.257 78.5114 146.355 79.2885C148.336 80.6811 150.202 78.9654 150.816 78.396L151 78.2267V72.9949L150.885 72.5871ZM132.82 34.5407C132.827 41.1344 127.553 46.5048 121.058 46.5202C121.05 46.5202 121.043 46.5202 121.027 46.5202C117.803 46.5202 114.778 45.266 112.498 42.9887C110.225 40.7113 108.974 37.6799 108.981 34.4638C108.989 28.0702 114.425 22.6537 120.835 22.6383C120.851 22.6383 120.858 22.6383 120.874 22.6383C124.098 22.6383 127.1 23.8693 129.342 26.1005C131.584 28.3318 132.812 31.3324 132.82 34.5407ZM93.8952 24.4771C93.9028 34.6562 85.688 42.9579 75.5845 42.9887C70.7093 43.0117 66.1259 41.096 62.625 37.626C59.124 34.1484 57.1893 29.5705 57.174 24.7233C57.1586 19.6915 59.0319 15.0136 62.456 11.5514C65.8725 8.0891 70.502 6.17332 75.4847 6.16562C75.5 6.16562 75.5077 6.16562 75.5231 6.16562C80.475 6.16562 85.0892 8.05063 88.5363 11.4821C91.9912 14.9136 93.8952 19.5299 93.8952 24.4771ZM42.0724 34.6177C42.0417 41.2037 36.6675 46.5432 30.0803 46.5432C30.0649 46.5432 30.0496 46.5432 30.0342 46.5432C26.825 46.5279 23.8385 45.2814 21.6351 43.0348C19.4317 40.7805 18.2263 37.7414 18.2417 34.4715C18.2647 27.9471 23.6082 22.6537 30.1494 22.6537C30.1647 22.6537 30.1724 22.6537 30.1878 22.6537C33.2587 22.6614 36.3144 23.9693 38.5638 26.2467C40.844 28.5318 42.0878 31.5093 42.0724 34.6177Z" fill="#1A365D"/>
</svg>
